# This file uses centimeters as units for non-parametric coordinates.

mtllib MS_Bench.mtl
g default
v 109.981346 0.141364 41.332962
v 107.431114 0.141364 43.883163
v 107.431114 -2.408857 41.332962
v 58.697044 -2.408857 41.332962
v 58.697044 0.141364 43.883163
v 56.146843 0.141364 41.332962
v 58.793938 17.409683 35.987705
v 56.146843 14.911266 41.384762
v 58.595787 14.960756 43.883163
v 59.960396 17.409683 41.240238
v 106.167778 17.409683 41.240238
v 107.481728 14.910114 43.883163
v 109.981346 14.963070 41.436562
v 107.334236 17.409683 35.987705
v 107.334236 17.409683 -35.987705
v 109.981346 14.911266 -41.384762
v 107.532356 14.960756 -43.883163
v 106.167778 17.409683 -41.240238
v 59.960396 17.409683 -41.240238
v 58.646416 14.910114 -43.883163
v 56.146843 14.963070 -41.436562
v 58.793938 17.409683 -35.987705
v 56.146843 0.141364 -41.332962
v 58.697044 0.141364 -43.883163
v 58.697044 -2.408857 -41.332962
v 107.431114 -2.408857 -41.332962
v 107.431114 0.141364 -43.883163
v 109.981346 0.141364 -41.332962
v 62.472450 19.959900 31.020309
v 59.993767 17.409683 34.259388
v 63.046562 17.409674 36.226604
v 64.948494 19.885723 33.570511
v 101.179619 19.885723 33.570511
v 103.081429 17.409674 36.227322
v 106.170876 17.409683 34.269527
v 103.655724 19.959900 31.020309
v 64.948494 19.885723 -33.570511
v 63.046684 17.409674 -36.227322
v 59.957268 17.409683 -34.269527
v 62.472450 19.959900 -31.020309
v 103.655724 19.959900 -31.020309
v 106.134407 17.409683 -34.259388
v 103.081581 17.409674 -36.226604
v 101.179619 19.885723 -33.570511
v 62.472450 71.110870 31.114868
v 64.937889 71.823143 33.570511
v 64.498009 75.504593 33.599331
v 101.094398 71.755341 33.570511
v 103.655724 71.723999 31.023829
v 104.421120 75.251060 31.045706
v 101.692360 75.360588 33.597172
v 64.498833 75.505409 -33.599331
v 65.046303 71.746475 -33.570511
v 62.472450 71.063576 -31.067585
v 103.655724 71.725021 -31.025234
v 101.091942 71.753593 -33.570511
v 101.692360 75.360588 -33.597172
v 104.421120 75.251060 -31.045706
v 101.094398 71.755341 33.570511
v 101.179619 19.885723 33.570511
v 64.937889 71.823143 33.570511
v 64.948494 19.885723 33.570511
v 65.046303 71.746475 -33.570511
v 64.948494 19.885723 -33.570511
v 101.091942 71.753593 -33.570511
v 101.179619 19.885723 -33.570511
v 97.181114 66.137413 33.570511
v 97.247887 25.506226 33.570511
v 68.858513 66.190521 33.570511
v 68.866844 25.506226 33.570511
v 68.950874 66.122688 -33.570511
v 68.874229 25.498436 -33.570511
v 97.186607 66.128258 -33.570511
v 97.255272 25.498436 -33.570511
v 97.181114 66.137413 30.030722
v 97.247887 25.506226 30.030722
v 68.858513 66.190521 30.030722
v 68.866844 25.506226 30.030722
v 68.950874 66.122688 -30.030722
v 68.874229 25.498436 -30.030722
v 97.186607 66.128258 -30.030722
v 97.255272 25.498436 -30.030722
v 59.557167 75.505386 -33.599331
v 59.556404 75.504616 33.599331
v 0.000008 71.087227 31.091230
v 0.000008 75.504990 -33.599331
v 0.000008 71.087227 -31.091230
v 0.000008 75.504990 33.599331
v -109.981346 0.141364 41.332962
v -107.431114 0.141364 43.883163
v -107.431114 -2.408857 41.332962
v -58.697044 -2.408857 41.332962
v -58.697044 0.141364 43.883163
v -56.146828 0.141364 41.332962
v -58.793934 17.409683 35.987705
v -56.146828 14.911266 41.384762
v -58.595787 14.960756 43.883163
v -59.960392 17.409683 41.240238
v -106.167778 17.409683 41.240238
v -107.481735 14.910114 43.883163
v -109.981346 14.963070 41.436562
v -107.334236 17.409683 35.987705
v -107.334236 17.409683 -35.987705
v -109.981346 14.911266 -41.384762
v -107.532356 14.960756 -43.883163
v -106.167778 17.409683 -41.240238
v -59.960392 17.409683 -41.240238
v -58.646416 14.910114 -43.883163
v -56.146828 14.963070 -41.436562
v -58.793934 17.409683 -35.987705
v -56.146828 0.141364 -41.332962
v -58.697044 0.141364 -43.883163
v -58.697044 -2.408857 -41.332962
v -107.431114 -2.408857 -41.332962
v -107.431114 0.141364 -43.883163
v -109.981346 0.141364 -41.332962
v -62.472450 19.959900 31.020309
v -59.993752 17.409683 34.259388
v -63.046558 17.409674 36.226604
v -64.948486 19.885723 33.570511
v -101.179619 19.885723 33.570511
v -103.081429 17.409674 36.227322
v -106.170876 17.409683 34.269527
v -103.655724 19.959900 31.020309
v -64.948486 19.885723 -33.570511
v -63.046680 17.409674 -36.227322
v -59.957268 17.409683 -34.269527
v -62.472450 19.959900 -31.020309
v -103.655724 19.959900 -31.020309
v -106.134407 17.409683 -34.259388
v -103.081581 17.409674 -36.226604
v -101.179619 19.885723 -33.570511
v -62.472450 71.110870 31.114868
v -64.937889 71.823143 33.570511
v -64.498009 75.504593 33.599331
v -101.094398 71.755341 33.570511
v -103.655724 71.723999 31.023829
v -104.421120 75.251060 31.045706
v -101.692360 75.360588 33.597172
v -64.498825 75.505409 -33.599331
v -65.046295 71.746475 -33.570511
v -62.472450 71.063576 -31.067585
v -103.655724 71.725021 -31.025234
v -101.091942 71.753593 -33.570511
v -101.692360 75.360588 -33.597172
v -104.421120 75.251060 -31.045706
v -101.094398 71.755341 33.570511
v -101.179619 19.885723 33.570511
v -64.937889 71.823143 33.570511
v -64.948486 19.885723 33.570511
v -65.046295 71.746475 -33.570511
v -64.948486 19.885723 -33.570511
v -101.091942 71.753593 -33.570511
v -101.179619 19.885723 -33.570511
v -97.181114 66.137413 33.570511
v -97.247887 25.506226 33.570511
v -68.858513 66.190521 33.570511
v -68.866844 25.506226 33.570511
v -68.950874 66.122688 -33.570511
v -68.874229 25.498436 -33.570511
v -97.186607 66.128258 -33.570511
v -97.255272 25.498436 -33.570511
v -97.181114 66.137413 30.030722
v -97.247887 25.506226 30.030722
v -68.858513 66.190521 30.030722
v -68.866844 25.506226 30.030722
v -68.950874 66.122688 -30.030722
v -68.874229 25.498436 -30.030722
v -97.186607 66.128258 -30.030722
v -97.255272 25.498436 -30.030722
v -59.557163 75.505386 -33.599331
v -59.556400 75.504616 33.599331
v 130.077301 89.940292 31.107422
v 127.313850 92.531837 31.110411
v 127.097740 89.986519 33.721825
v 127.097740 89.986519 -33.721825
v 127.275681 92.531837 -31.080572
v 130.077301 89.940292 -31.107422
v 128.928986 86.437340 -31.273323
v 125.582474 86.278992 -33.807354
v 127.079674 89.890106 -33.727535
v 130.071747 89.902817 -31.162146
v 125.585396 86.280251 33.807400
v 128.927338 86.434258 31.268539
v 130.071747 89.902817 31.162146
v 127.079674 89.890106 33.727535
v 69.729073 86.289276 -33.807510
v 69.494812 89.894936 -33.727249
v 69.467033 90.053093 -33.717850
v 68.947472 92.531837 -31.094963
v 68.947556 92.531837 31.094963
v 69.466980 90.053093 33.717850
v 69.494774 89.894913 33.727245
v 69.727798 86.290474 33.807549
v 0.000009 86.289864 -33.807537
v 0.000009 92.531837 -31.094963
v 0.000009 90.053093 33.717850
v 0.000009 89.894913 33.727249
v 0.000009 89.894936 -33.727253
v 0.000009 90.053093 -33.717850
v 0.000009 92.531837 31.094963
v 0.000009 86.289864 33.807537
v -130.077301 89.940292 31.107422
v -127.313843 92.531837 31.110411
v -127.097748 89.986519 33.721825
v -127.097748 89.986519 -33.721825
v -127.275681 92.531837 -31.080572
v -130.077301 89.940292 -31.107422
v -128.928986 86.437340 -31.273323
v -125.582474 86.278992 -33.807354
v -127.079674 89.890106 -33.727535
v -130.071762 89.902817 -31.162146
v -125.585396 86.280251 33.807400
v -128.927338 86.434258 31.268539
v -130.071762 89.902817 31.162146
v -127.079674 89.890106 33.727535
v -69.729073 86.289276 -33.807510
v -69.494812 89.894936 -33.727249
v -69.467033 90.053093 -33.717850
v -68.947472 92.531837 -31.094963
v -68.947556 92.531837 31.094963
v -69.466980 90.053093 33.717850
v -69.494774 89.894913 33.727245
v -69.727798 86.290474 33.807549
v 69.301567 75.081062 33.640976
v 0.000009 75.081238 33.640972
v -69.301567 75.081062 33.640976
v -119.637276 74.963791 33.639217
v -122.841972 74.906975 31.090273
v -122.842300 74.907593 -31.091228
v -119.636696 74.963547 -33.639206
v -69.302536 75.081436 -33.640968
v 0.000009 75.081238 -33.640972
v 69.302536 75.081436 -33.640968
v 119.636696 74.963547 -33.639206
v 122.842300 74.907593 -31.091228
v 122.841972 74.906975 31.090273
v 119.637276 74.963791 33.639217
vt 0.556121 0.708561
vt 0.546742 0.708561
vt 0.546742 0.530244
vt 0.556121 0.530244
vt 0.556121 0.708561
vt 0.610534 0.708561
vt 0.610534 0.708561
vt 0.483063 0.661432
vt 0.490328 0.661432
vt 0.490328 0.787077
vt 0.483063 0.787077
vt 0.869000 0.202382
vt 0.878379 0.202382
vt 0.878379 0.380700
vt 0.869000 0.380700
vt 0.878379 0.202382
vt 0.932792 0.202382
vt 0.932792 0.202382
vt 0.409735 0.311127
vt 0.409735 0.300422
vt 0.421928 0.312644
vt 0.411723 0.312644
vt 0.941887 0.216236
vt 0.941887 0.366846
vt 0.932792 0.380700
vt 0.539523 0.787077
vt 0.532474 0.787077
vt 0.532474 0.661432
vt 0.539523 0.661432
vt 0.567148 0.300422
vt 0.567148 0.311127
vt 0.565159 0.312644
vt 0.554955 0.312644
vt 0.619630 0.694708
vt 0.610534 0.530244
vt 0.619630 0.544097
vt 0.567148 0.457823
vt 0.567148 0.468528
vt 0.554955 0.456306
vt 0.565159 0.456306
vt 0.610534 0.530244
vt 0.556121 0.530244
vt 0.807250 0.674712
vt 0.814299 0.674712
vt 0.814299 0.800357
vt 0.807250 0.800357
vt 0.409735 0.468528
vt 0.409735 0.457823
vt 0.411723 0.456306
vt 0.421928 0.456306
vt 0.932792 0.380700
vt 0.878379 0.380700
vt 0.863710 0.800357
vt 0.856445 0.800357
vt 0.856445 0.674712
vt 0.863710 0.674712
vt 0.859569 0.368559
vt 0.864531 0.368559
vt 0.864531 0.548041
vt 0.859569 0.548041
vt 0.865896 0.359804
vt 0.736456 0.368559
vt 0.730062 0.359804
vt 0.950699 0.149085
vt 0.942328 0.154962
vt 0.942328 0.031263
vt 0.950699 0.037140
vt 0.731448 0.368559
vt 0.736456 0.548041
vt 0.731448 0.548041
vt 0.962277 0.154858
vt 0.953906 0.148983
vt 0.953906 0.037037
vt 0.962277 0.031160
vt 0.851689 0.021732
vt 0.851689 0.188435
vt 0.691469 0.188435
vt 0.691469 0.021732
vt 0.950887 0.563683
vt 0.950887 0.672379
vt 0.880578 0.672379
vt 0.880578 0.563683
vt 0.622000 0.779847
vt 0.622000 0.671233
vt 0.692202 0.671233
vt 0.692202 0.779847
vt 0.941887 0.205245
vt 0.619630 0.705699
vt 0.619630 0.533106
vt 0.941887 0.377837
vt 0.950699 0.156736
vt 0.942328 0.164394
vt 0.942328 0.021718
vt 0.950699 0.029489
vt 0.962277 0.164404
vt 0.953906 0.156633
vt 0.953906 0.029386
vt 0.962277 0.021728
vt 0.014150 0.019399
vt 0.014150 0.019387
vt 0.014150 0.019387
vt 0.014150 0.019399
vt 0.014150 0.014322
vt 0.014150 0.014322
vt 0.014150 0.014323
vt 0.014150 0.014323
vt 0.014150 0.014334
vt 0.014150 0.014348
vt 0.014150 0.014348
vt 0.014150 0.014334
vt 0.014150 0.019387
vt 0.014150 0.019387
vt 0.014150 0.019399
vt 0.014150 0.019399
vt 0.505280 0.314977
vt 0.505280 0.453738
vt 0.495553 0.438700
vt 0.495553 0.330003
vt 0.415524 0.453738
vt 0.425244 0.438700
vt 0.415524 0.314977
vt 0.425244 0.330003
vt 0.622000 0.668900
vt 0.622000 0.530244
vt 0.631709 0.545281
vt 0.631709 0.653895
vt 0.711619 0.530244
vt 0.701911 0.545281
vt 0.711619 0.668900
vt 0.701911 0.653895
vt 0.951133 0.304394
vt 0.951133 0.443090
vt 0.944257 0.443090
vt 0.944257 0.304394
vt 0.455467 0.332336
vt 0.455467 0.425451
vt 0.448329 0.425451
vt 0.448329 0.332336
vt 0.948117 0.302061
vt 0.948117 0.163183
vt 0.954992 0.163183
vt 0.954992 0.302061
vt 0.537094 0.408285
vt 0.537094 0.314977
vt 0.544232 0.314977
vt 0.544232 0.408285
vt 0.515024 0.314977
vt 0.515024 0.453651
vt 0.508149 0.453651
vt 0.508149 0.314977
vt 0.467625 0.425165
vt 0.467625 0.332336
vt 0.474764 0.332336
vt 0.474764 0.425165
vt 0.953906 0.443085
vt 0.953906 0.304394
vt 0.960781 0.304394
vt 0.960781 0.443085
vt 0.436170 0.332336
vt 0.436170 0.425643
vt 0.429032 0.425643
vt 0.429032 0.332336
vt 0.266905 0.021732
vt 0.266905 0.348889
vt 0.141509 0.348889
vt 0.141509 0.021732
vt 0.556121 0.708561
vt 0.556121 0.530244
vt 0.546742 0.530244
vt 0.546742 0.708561
vt 0.556121 0.708561
vt 0.610534 0.708561
vt 0.610534 0.708561
vt 0.483063 0.661432
vt 0.483063 0.787077
vt 0.490328 0.787077
vt 0.490328 0.661432
vt 0.869000 0.202382
vt 0.869000 0.380700
vt 0.878379 0.380700
vt 0.878379 0.202382
vt 0.932792 0.202382
vt 0.932792 0.202382
vt 0.878379 0.202382
vt 0.409735 0.311127
vt 0.411723 0.312644
vt 0.421928 0.312644
vt 0.409735 0.300422
vt 0.932792 0.380700
vt 0.941887 0.366846
vt 0.941887 0.216236
vt 0.539523 0.787077
vt 0.539523 0.661432
vt 0.532474 0.661432
vt 0.532474 0.787077
vt 0.567148 0.300422
vt 0.554955 0.312644
vt 0.565159 0.312644
vt 0.567148 0.311127
vt 0.619630 0.694708
vt 0.619630 0.544097
vt 0.610534 0.530244
vt 0.567148 0.457823
vt 0.565159 0.456306
vt 0.554955 0.456306
vt 0.567148 0.468528
vt 0.610534 0.530244
vt 0.556121 0.530244
vt 0.807250 0.674712
vt 0.807250 0.800357
vt 0.814299 0.800357
vt 0.814299 0.674712
vt 0.409735 0.468528
vt 0.421928 0.456306
vt 0.411723 0.456306
vt 0.409735 0.457823
vt 0.878379 0.380700
vt 0.932792 0.380700
vt 0.863710 0.800357
vt 0.863710 0.674712
vt 0.856445 0.674712
vt 0.856445 0.800357
vt 0.859569 0.368559
vt 0.859569 0.548041
vt 0.864531 0.548041
vt 0.864531 0.368559
vt 0.865896 0.359804
vt 0.730062 0.359804
vt 0.736456 0.368559
vt 0.950699 0.149085
vt 0.950699 0.037140
vt 0.942328 0.031263
vt 0.942328 0.154962
vt 0.731448 0.368559
vt 0.731448 0.548041
vt 0.736456 0.548041
vt 0.962277 0.154858
vt 0.962277 0.031160
vt 0.953906 0.037037
vt 0.953906 0.148983
vt 0.851689 0.021732
vt 0.691469 0.021732
vt 0.691469 0.188435
vt 0.851689 0.188435
vt 0.950887 0.563683
vt 0.880578 0.563683
vt 0.880578 0.672379
vt 0.950887 0.672379
vt 0.622000 0.779847
vt 0.692202 0.779847
vt 0.692202 0.671233
vt 0.622000 0.671233
vt 0.941887 0.205245
vt 0.619630 0.705699
vt 0.619630 0.533106
vt 0.941887 0.377837
vt 0.950699 0.156736
vt 0.942328 0.164394
vt 0.950699 0.029489
vt 0.942328 0.021718
vt 0.953906 0.156633
vt 0.962277 0.164404
vt 0.953906 0.029386
vt 0.962277 0.021728
vt 0.014150 0.019399
vt 0.014150 0.019399
vt 0.014150 0.019387
vt 0.014150 0.019387
vt 0.014150 0.014322
vt 0.014150 0.014322
vt 0.014150 0.014323
vt 0.014150 0.014323
vt 0.014150 0.014334
vt 0.014150 0.014334
vt 0.014150 0.014348
vt 0.014150 0.014348
vt 0.014150 0.019387
vt 0.014150 0.019387
vt 0.014150 0.019399
vt 0.014150 0.019399
vt 0.505280 0.314977
vt 0.495553 0.330003
vt 0.495553 0.438700
vt 0.505280 0.453738
vt 0.425244 0.438700
vt 0.415524 0.453738
vt 0.425244 0.330003
vt 0.415524 0.314977
vt 0.622000 0.668900
vt 0.631709 0.653895
vt 0.631709 0.545281
vt 0.622000 0.530244
vt 0.701911 0.545281
vt 0.711619 0.530244
vt 0.701911 0.653895
vt 0.711619 0.668900
vt 0.951133 0.304394
vt 0.944257 0.304394
vt 0.944257 0.443090
vt 0.951133 0.443090
vt 0.455467 0.332336
vt 0.448329 0.332336
vt 0.448329 0.425451
vt 0.455467 0.425451
vt 0.948117 0.302061
vt 0.954992 0.302061
vt 0.954992 0.163183
vt 0.948117 0.163183
vt 0.537094 0.408285
vt 0.544232 0.408285
vt 0.544232 0.314977
vt 0.537094 0.314977
vt 0.515024 0.314977
vt 0.508149 0.314977
vt 0.508149 0.453651
vt 0.515024 0.453651
vt 0.467625 0.425165
vt 0.474764 0.425165
vt 0.474764 0.332336
vt 0.467625 0.332336
vt 0.953906 0.443085
vt 0.960781 0.443085
vt 0.960781 0.304394
vt 0.953906 0.304394
vt 0.436170 0.332336
vt 0.429032 0.332336
vt 0.429032 0.425643
vt 0.436170 0.425643
vt 0.266905 0.021732
vt 0.141509 0.021732
vt 0.141509 0.348889
vt 0.266905 0.348889
vt 0.435178 0.555314
vt 0.430932 0.555287
vt 0.430934 0.480591
vt 0.435178 0.480566
vt 0.430970 0.558353
vt 0.435310 0.558385
vt 0.368617 0.480597
vt 0.368617 0.555283
vt 0.430968 0.477527
vt 0.435310 0.477495
vt 0.368528 0.558353
vt 0.368528 0.477527
vt 0.365547 0.559195
vt 0.365547 0.476697
vt 0.502283 0.564010
vt 0.502283 0.638758
vt 0.498038 0.638733
vt 0.498037 0.564036
vt 0.502415 0.641829
vt 0.498073 0.641797
vt 0.435722 0.638727
vt 0.435722 0.564041
vt 0.498075 0.560971
vt 0.502415 0.560939
vt 0.435632 0.641797
vt 0.432652 0.642627
vt 0.432652 0.560129
vt 0.435632 0.560971
vt 0.269222 0.674099
vt 0.350118 0.674100
vt 0.350118 0.680049
vt 0.269222 0.680048
vt 0.269222 0.602403
vt 0.350118 0.602403
vt 0.350116 0.724823
vt 0.269225 0.724823
vt 0.269222 0.530707
vt 0.350118 0.530706
vt 0.347044 0.728108
vt 0.272297 0.728108
vt 0.269222 0.524758
vt 0.350118 0.524757
vt 0.269225 0.479982
vt 0.350116 0.479982
vt 0.272297 0.476697
vt 0.347044 0.476697
vt 0.357176 0.527422
vt 0.351887 0.523912
vt 0.352744 0.520944
vt 0.357176 0.521473
vt 0.357176 0.599118
vt 0.351858 0.599118
vt 0.352662 0.477417
vt 0.357003 0.476697
vt 0.357176 0.670814
vt 0.351887 0.674324
vt 0.357176 0.676763
vt 0.352744 0.677292
vt 0.357003 0.721538
vt 0.352662 0.720819
vt 0.363228 0.520813
vt 0.358703 0.521472
vt 0.358877 0.476697
vt 0.363219 0.477420
vt 0.364050 0.523911
vt 0.358703 0.527421
vt 0.364021 0.599118
vt 0.358703 0.599118
vt 0.364050 0.674324
vt 0.358703 0.670815
vt 0.363228 0.677423
vt 0.358703 0.676764
vt 0.363219 0.720816
vt 0.358877 0.721538
vt 0.567932 0.265073
vt 0.561927 0.266519
vt 0.561853 0.266339
vt 0.567842 0.265007
vt 0.567132 0.271584
vt 0.675928 0.265062
vt 0.676237 0.271780
vt 0.530733 0.061431
vt 0.534691 0.061431
vt 0.534691 0.126252
vt 0.530733 0.126252
vt 0.530594 0.126252
vt 0.530594 0.061431
vt 0.139562 0.186836
vt 0.014150 0.186836
vt 0.014150 0.021732
vt 0.139562 0.021732
vt 0.426718 0.063620
vt 0.426718 0.126252
vt 0.425992 0.126252
vt 0.425992 0.063620
vt 0.422018 0.126252
vt 0.422018 0.063620
vt 0.681853 0.268175
vt 0.676026 0.264996
vt 0.681948 0.268033
vt 0.525957 0.061431
vt 0.525957 0.126252
vt 0.430508 0.063620
vt 0.430508 0.126252
vt 0.676273 0.258629
vt 0.566689 0.258702
vt 0.430508 0.059537
vt 0.426718 0.059537
vt 0.559006 0.259959
vt 0.530594 0.202366
vt 0.525957 0.202366
vt 0.530733 0.202366
vt 0.430508 0.202366
vt 0.426718 0.202366
vt 0.534691 0.202366
vt 0.139562 0.503705
vt 0.014150 0.503705
vt 0.425992 0.202366
vt 0.422018 0.202366
vt 0.568344 0.142356
vt 0.564373 0.142356
vt 0.564373 0.078236
vt 0.568345 0.078236
vt 0.677447 0.142357
vt 0.673458 0.142357
vt 0.673459 0.078523
vt 0.677448 0.078523
vt 0.426856 0.245070
vt 0.426766 0.245135
vt 0.420818 0.243811
vt 0.420891 0.243633
vt 0.426061 0.238602
vt 0.534435 0.238418
vt 0.534128 0.245091
vt 0.540013 0.242000
vt 0.540107 0.242140
vt 0.534225 0.245157
vt 0.672731 0.142357
vt 0.668926 0.142357
vt 0.668926 0.078523
vt 0.672731 0.078523
vt 0.573131 0.142356
vt 0.568484 0.142356
vt 0.568484 0.078236
vt 0.573132 0.078236
vt 0.534469 0.251481
vt 0.425620 0.251398
vt 0.139562 0.186836
vt 0.139562 0.021732
vt 0.014150 0.021732
vt 0.014150 0.186836
vt 0.668926 0.074422
vt 0.672731 0.074422
vt 0.417989 0.250149
vt 0.573131 0.218577
vt 0.568484 0.218577
vt 0.568344 0.218577
vt 0.672730 0.218577
vt 0.668925 0.218577
vt 0.564372 0.218577
vt 0.139562 0.503705
vt 0.014150 0.503705
vt 0.673458 0.218577
vt 0.677447 0.218577
vt 0.514890 0.126252
vt 0.514890 0.072105
vt 0.514890 0.202366
vt 0.584254 0.142356
vt 0.584253 0.218577
vt 0.584254 0.087980
vt 0.588164 0.084418
vt 0.573132 0.075180
vt 0.534335 0.274131
vt 0.426114 0.274120
vt 0.657470 0.087980
vt 0.654501 0.084419
vt 0.657470 0.142357
vt 0.657469 0.218577
vt 0.441940 0.126252
vt 0.441940 0.202366
vt 0.441940 0.072105
vt 0.444889 0.068558
vt 0.567189 0.235826
vt 0.676140 0.235827
vt 0.510842 0.068558
vt 0.525957 0.058395
vn -0.007174 -0.490469 0.871429
vn -0.389499 -0.280614 0.877238
vn -0.396211 -0.028534 0.917716
vn -0.034588 -0.058192 0.997706
vn 0.989460 -0.144805 0.000000
vn 0.707105 -0.707108 0.000000
vn 0.707105 -0.707108 0.000000
vn 0.989421 -0.145072 0.000000
vn 0.702954 -0.042483 0.709966
vn 0.702952 -0.042541 0.709964
vn 0.703378 -0.003691 0.710806
vn 0.703378 -0.003691 0.710806
vn 0.000000 -0.707104 0.707110
vn 0.000000 -0.145017 0.989429
vn 0.000000 -0.144755 0.989468
vn 0.000000 -0.707104 0.707110
vn -0.707109 -0.707104 0.000000
vn -0.989421 -0.145071 0.000000
vn -0.989460 -0.144804 0.000000
vn -0.707109 -0.707104 0.000000
vn -0.709730 -0.042454 0.703193
vn -0.709728 -0.042509 0.703192
vn -0.710556 -0.003663 0.703631
vn -0.710556 -0.003663 0.703631
vn 0.000001 1.000000 0.000000
vn 0.000000 1.000000 -0.000002
vn 0.000000 1.000000 -0.000002
vn 0.000000 1.000000 0.000000
vn -0.998219 0.059648 0.000020
vn -0.682599 0.730793 0.000245
vn -0.682599 0.730793 0.000245
vn -0.998255 0.059051 0.000020
vn 0.000389 0.730017 0.683429
vn 0.000063 0.118744 0.992925
vn 0.000064 0.119580 0.992825
vn 0.000389 0.730017 0.683429
vn -0.000000 1.000000 -0.000002
vn -0.000001 1.000000 -0.000000
vn -0.000000 1.000000 -0.000000
vn -0.000000 1.000000 -0.000002
vn 0.682598 0.730794 -0.000245
vn 0.998255 0.059052 -0.000020
vn 0.998219 0.059649 -0.000020
vn 0.682598 0.730794 -0.000245
vn -0.000001 1.000000 0.000000
vn -0.000000 1.000000 0.000002
vn -0.000000 1.000000 0.000002
vn -0.000000 1.000000 0.000000
vn 0.710551 -0.003663 -0.703636
vn 0.710551 -0.003663 -0.703636
vn 0.709725 -0.042454 -0.703199
vn 0.709723 -0.042510 -0.703197
vn -0.000389 0.730017 -0.683429
vn -0.000063 0.118745 -0.992925
vn -0.000064 0.119579 -0.992825
vn -0.000389 0.730017 -0.683429
vn 0.000000 1.000000 0.000002
vn 0.000001 1.000000 0.000000
vn 0.000000 1.000000 0.000000
vn 0.000000 1.000000 0.000002
vn -0.703384 -0.003692 -0.710801
vn -0.703384 -0.003692 -0.710801
vn -0.702959 -0.042483 -0.709960
vn -0.702958 -0.042542 -0.709958
vn 0.000000 -0.707104 -0.707110
vn -0.000000 -0.145017 -0.989429
vn -0.000000 -0.144755 -0.989468
vn 0.000000 -0.707104 -0.707110
vn -0.706614 0.061624 0.704911
vn -0.411159 0.452106 0.791548
vn -0.714532 0.699603 0.000200
vn -0.997559 0.069826 0.000020
vn -0.997561 0.069807 0.000020
vn -0.714532 0.699603 0.000200
vn -0.051458 0.753959 0.654903
vn 0.051446 0.754214 0.654610
vn 0.415585 0.447589 0.791804
vn 0.706168 0.062026 0.705322
vn 0.709862 -0.009232 0.704281
vn 0.710034 -0.008033 0.704121
vn 0.997609 0.069115 -0.000020
vn 0.714534 0.699601 -0.000200
vn 0.714534 0.699601 -0.000200
vn 0.997605 0.069170 -0.000020
vn -0.411198 0.449154 -0.793207
vn -0.702380 0.062414 -0.709061
vn -0.385916 -0.281490 -0.878540
vn -0.393757 -0.027796 -0.918794
vn -0.051446 0.754214 -0.654610
vn 0.415577 0.447328 -0.791956
vn 0.051458 0.753959 -0.654903
vn 0.706086 0.061390 -0.705461
vn 0.709769 -0.008019 -0.704389
vn 0.709594 -0.009239 -0.704551
vn 0.000008 -0.007614 0.999971
vn 0.000008 -0.007614 0.999971
vn 0.977248 -0.212100 -0.000002
vn 0.999903 -0.013897 -0.000000
vn 0.999904 -0.013895 -0.000000
vn 0.977248 -0.212100 -0.000002
vn -0.036619 -0.061023 -0.997464
vn 0.000015 -0.007532 -0.999972
vn 0.000015 -0.007532 -0.999972
vn 0.000000 -1.000000 0.000000
vn 0.000000 -1.000000 0.000000
vn 0.000000 -1.000000 0.000000
vn 0.000000 -1.000000 0.000000
vn 0.000000 0.000000 1.000000
vn 0.000000 0.000000 1.000000
vn 0.000000 0.000000 1.000000
vn 0.000000 0.000000 1.000000
vn -1.000000 0.000000 0.000000
vn -1.000000 0.000000 0.000000
vn 0.000000 0.000000 -1.000000
vn 0.000000 0.000000 -1.000000
vn 0.000000 0.000000 -1.000000
vn 0.000000 0.000000 -1.000000
vn 0.577348 -0.577349 0.577354
vn -0.577352 -0.577348 0.577351
vn -0.525618 0.816177 0.239962
vn -0.525618 0.816177 0.239962
vn -0.525618 0.816177 0.239962
vn -0.525618 0.816176 0.239962
vn 0.513646 0.820704 0.250227
vn 0.513646 0.820704 0.250227
vn 0.513646 0.820703 0.250227
vn 0.513646 0.820704 0.250227
vn 0.525616 0.816177 -0.239964
vn 0.525616 0.816177 -0.239964
vn 0.525616 0.816177 -0.239964
vn 0.525616 0.816177 -0.239964
vn -0.513647 0.820704 -0.250224
vn -0.513647 0.820704 -0.250224
vn -0.513647 0.820704 -0.250224
vn -0.513647 0.820704 -0.250224
vn -0.577352 -0.577348 -0.577351
vn 0.577348 -0.577349 -0.577354
vn -0.350772 0.825128 0.442857
vn 0.347844 0.826267 0.443044
vn -0.347846 0.826268 -0.443040
vn 0.350768 0.825129 -0.442859
vn 0.685604 -0.135923 0.715173
vn 0.685604 -0.135923 0.715173
vn 0.685373 -0.135960 -0.715387
vn 0.685373 -0.135960 -0.715387
vn 0.000000 0.000000 0.000000
vn 0.000000 0.000000 0.000000
vn 0.000000 0.000000 0.000000
vn 0.000000 0.000000 0.000000
vn 0.000000 0.000000 0.000000
vn 0.000000 0.000000 0.000000
vn 0.000000 0.000000 0.000000
vn 0.000000 0.000000 0.000000
vn 0.000000 0.000000 0.000000
vn 0.000000 0.000000 0.000000
vn 0.000000 0.000000 0.000000
vn 0.000000 0.000000 0.000000
vn 0.000000 0.000000 0.000000
vn 0.000000 0.000000 0.000000
vn 0.000000 0.000000 0.000000
vn 0.000000 0.000000 0.000000
vn 0.000000 0.000000 0.000000
vn 0.000000 0.000000 0.000000
vn 0.000000 0.000000 0.000000
vn 0.000000 0.000000 0.000000
vn 0.000000 0.000000 0.000000
vn 0.000000 0.000000 0.000000
vn 0.000000 0.000000 0.000000
vn 0.000000 0.000000 0.000000
vn 0.000000 0.000000 0.000000
vn 0.000000 0.000000 0.000000
vn 0.000000 0.000000 0.000000
vn 0.000000 0.000000 0.000000
vn 0.000000 0.000000 0.000000
vn 0.000000 0.000000 0.000000
vn 0.000000 0.000000 0.000000
vn 0.000000 0.000000 0.000000
vn 0.000000 0.000000 1.000000
vn 0.000000 0.000000 1.000000
vn 0.000000 0.000000 1.000000
vn 0.000000 0.000000 1.000000
vn -0.000000 0.000000 1.000000
vn -0.000000 0.000000 1.000000
vn -0.000000 0.000000 1.000000
vn -0.000000 0.000000 1.000000
vn 0.000000 0.000000 -1.000000
vn 0.000000 0.000000 -1.000000
vn 0.000000 0.000000 -1.000000
vn 0.000000 0.000000 -1.000000
vn -0.000000 0.000000 -1.000000
vn -0.000000 0.000000 -1.000000
vn -0.000000 0.000000 -1.000000
vn -0.000000 0.000000 -1.000000
vn -0.999999 -0.001643 0.000000
vn -0.999999 -0.001643 0.000000
vn -0.999999 -0.001643 0.000000
vn -0.999999 -0.001643 0.000000
vn -0.001875 -0.999998 0.000000
vn -0.001875 -0.999998 0.000000
vn -0.001875 -0.999998 0.000000
vn -0.001875 -0.999998 0.000000
vn 1.000000 0.000205 0.000000
vn 1.000000 0.000205 0.000000
vn 1.000000 0.000205 0.000000
vn 1.000000 0.000205 0.000000
vn 0.000000 1.000000 0.000000
vn 0.000000 1.000000 0.000000
vn 0.000000 1.000000 0.000000
vn 0.000000 1.000000 0.000000
vn 0.999998 -0.001887 0.000000
vn 0.999998 -0.001887 0.000000
vn 0.999998 -0.001887 0.000000
vn 0.999998 -0.001887 0.000000
vn 0.000197 -1.000000 0.000000
vn 0.000197 -1.000000 0.000000
vn 0.000197 -1.000000 0.000000
vn 0.000197 -1.000000 0.000000
vn -0.999999 -0.001690 0.000000
vn -0.999999 -0.001690 0.000000
vn -0.999999 -0.001690 0.000000
vn -0.999999 -0.001690 0.000000
vn 0.000000 1.000000 0.000000
vn 0.000000 1.000000 0.000000
vn 0.000000 1.000000 0.000000
vn 0.000000 1.000000 0.000000
vn -0.007327 -0.491892 -0.870625
vn 0.000000 -0.494435 -0.869214
vn 0.000000 -0.494435 -0.869214
vn -0.000000 -0.492984 0.870039
vn -0.000000 -0.492984 0.870039
vn -0.000000 -1.000000 0.000380
vn 0.000000 -1.000000 0.000380
vn 0.000000 -1.000000 0.000380
vn -0.000000 -1.000000 0.000380
vn 0.007174 -0.490469 0.871429
vn 0.034588 -0.058192 0.997706
vn 0.396212 -0.028534 0.917716
vn 0.389499 -0.280614 0.877238
vn -0.989460 -0.144805 0.000000
vn -0.989421 -0.145073 0.000000
vn -0.707105 -0.707108 0.000000
vn -0.707105 -0.707108 0.000000
vn -0.702954 -0.042483 0.709965
vn -0.703379 -0.003691 0.710805
vn -0.703379 -0.003691 0.710806
vn -0.702953 -0.042541 0.709963
vn 0.000000 -0.707104 0.707110
vn 0.000000 -0.707104 0.707110
vn 0.000000 -0.144755 0.989468
vn 0.000000 -0.145017 0.989429
vn 0.707107 -0.707107 0.000000
vn 0.707107 -0.707107 0.000000
vn 0.989460 -0.144805 0.000000
vn 0.989421 -0.145073 0.000000
vn 0.709728 -0.042455 0.703195
vn 0.710554 -0.003664 0.703633
vn 0.710554 -0.003664 0.703633
vn 0.709726 -0.042510 0.703194
vn -0.000001 1.000000 0.000000
vn -0.000000 1.000000 0.000000
vn -0.000000 1.000000 -0.000002
vn -0.000000 1.000000 -0.000002
vn 0.998220 0.059648 0.000020
vn 0.998255 0.059052 0.000020
vn 0.682597 0.730795 0.000245
vn 0.682597 0.730795 0.000245
vn -0.000389 0.730017 0.683429
vn -0.000389 0.730017 0.683429
vn -0.000064 0.119579 0.992825
vn -0.000063 0.118744 0.992925
vn 0.000000 1.000000 -0.000002
vn 0.000000 1.000000 -0.000002
vn 0.000000 1.000000 -0.000000
vn 0.000001 1.000000 -0.000000
vn -0.682599 0.730793 -0.000245
vn -0.682599 0.730793 -0.000245
vn -0.998219 0.059648 -0.000020
vn -0.998255 0.059052 -0.000020
vn 0.000001 1.000000 -0.000000
vn 0.000000 1.000000 -0.000000
vn 0.000000 1.000000 0.000002
vn 0.000000 1.000000 0.000002
vn -0.710550 -0.003663 -0.703637
vn -0.709723 -0.042510 -0.703197
vn -0.709725 -0.042454 -0.703199
vn -0.710550 -0.003663 -0.703637
vn 0.000389 0.730017 -0.683429
vn 0.000389 0.730017 -0.683429
vn 0.000064 0.119579 -0.992825
vn 0.000063 0.118745 -0.992925
vn -0.000000 1.000000 0.000002
vn -0.000000 1.000000 0.000002
vn -0.000000 1.000000 0.000000
vn -0.000001 1.000000 0.000000
vn 0.703381 -0.003692 -0.710803
vn 0.702955 -0.042542 -0.709960
vn 0.702957 -0.042483 -0.709963
vn 0.703382 -0.003692 -0.710803
vn 0.000000 -0.707104 -0.707110
vn 0.000000 -0.707104 -0.707110
vn 0.000000 -0.144755 -0.989468
vn 0.000000 -0.145017 -0.989429
vn 0.706614 0.061624 0.704911
vn 0.411159 0.452106 0.791548
vn 0.714531 0.699604 0.000200
vn 0.714531 0.699604 0.000200
vn 0.997561 0.069808 0.000020
vn 0.997559 0.069826 0.000020
vn -0.415585 0.447589 0.791804
vn -0.051446 0.754214 0.654610
vn 0.051458 0.753959 0.654903
vn -0.710034 -0.008033 0.704121
vn -0.709862 -0.009232 0.704281
vn -0.706169 0.062026 0.705322
vn -0.997609 0.069116 -0.000020
vn -0.997605 0.069170 -0.000020
vn -0.714534 0.699601 -0.000200
vn -0.714534 0.699601 -0.000200
vn 0.411199 0.449154 -0.793206
vn 0.393758 -0.027796 -0.918794
vn 0.385917 -0.281490 -0.878540
vn 0.702381 0.062414 -0.709059
vn 0.051446 0.754214 -0.654610
vn -0.051458 0.753959 -0.654903
vn -0.415577 0.447328 -0.791955
vn -0.706086 0.061390 -0.705460
vn -0.709594 -0.009239 -0.704550
vn -0.709769 -0.008019 -0.704389
vn -0.000008 -0.007614 0.999971
vn -0.000008 -0.007614 0.999971
vn -0.977248 -0.212099 -0.000002
vn -0.977248 -0.212099 -0.000002
vn -0.999904 -0.013895 -0.000000
vn -0.999903 -0.013897 -0.000000
vn -0.000015 -0.007532 -0.999972
vn -0.000015 -0.007532 -0.999972
vn 0.036619 -0.061023 -0.997464
vn 0.000000 -1.000000 0.000000
vn 0.000000 -1.000000 0.000000
vn 0.000000 -1.000000 0.000000
vn 0.000000 -1.000000 0.000000
vn -0.000000 0.000000 1.000000
vn -0.000000 0.000000 1.000000
vn -0.000000 0.000000 1.000000
vn -0.000000 0.000000 1.000000
vn 1.000000 -0.000000 0.000000
vn 1.000000 -0.000000 0.000000
vn 0.000000 0.000000 -1.000000
vn 0.000000 0.000000 -1.000000
vn 0.000000 0.000000 -1.000000
vn 0.000000 0.000000 -1.000000
vn -0.577348 -0.577349 0.577354
vn 0.577350 -0.577348 0.577353
vn 0.525616 0.816177 0.239962
vn 0.525616 0.816177 0.239962
vn 0.525616 0.816178 0.239962
vn 0.525616 0.816177 0.239962
vn -0.513646 0.820704 0.250226
vn -0.513646 0.820704 0.250226
vn -0.513646 0.820704 0.250226
vn -0.513646 0.820704 0.250226
vn -0.525615 0.816178 -0.239964
vn -0.525615 0.816178 -0.239964
vn -0.525615 0.816178 -0.239964
vn -0.525615 0.816178 -0.239964
vn 0.513646 0.820704 -0.250224
vn 0.513646 0.820704 -0.250224
vn 0.513646 0.820704 -0.250224
vn 0.513646 0.820704 -0.250224
vn 0.577350 -0.577348 -0.577353
vn -0.577348 -0.577349 -0.577354
vn 0.350772 0.825129 0.442857
vn -0.347844 0.826267 0.443044
vn 0.347847 0.826268 -0.443040
vn -0.350768 0.825129 -0.442859
vn -0.685604 -0.135922 0.715173
vn -0.685604 -0.135922 0.715173
vn -0.685372 -0.135959 -0.715388
vn -0.685372 -0.135959 -0.715388
vn 0.000000 0.000000 0.000000
vn 0.000000 0.000000 0.000000
vn 0.000000 0.000000 0.000000
vn 0.000000 0.000000 0.000000
vn 0.000000 0.000000 0.000000
vn 0.000000 0.000000 0.000000
vn 0.000000 0.000000 0.000000
vn 0.000000 0.000000 0.000000
vn 0.000000 0.000000 0.000000
vn 0.000000 0.000000 0.000000
vn 0.000000 0.000000 0.000000
vn 0.000000 0.000000 0.000000
vn 0.000000 0.000000 0.000000
vn 0.000000 0.000000 0.000000
vn 0.000000 0.000000 0.000000
vn 0.000000 0.000000 0.000000
vn 0.000000 0.000000 0.000000
vn 0.000000 0.000000 0.000000
vn 0.000000 0.000000 0.000000
vn 0.000000 0.000000 0.000000
vn 0.000000 0.000000 0.000000
vn 0.000000 0.000000 0.000000
vn 0.000000 0.000000 0.000000
vn 0.000000 0.000000 0.000000
vn 0.000000 0.000000 0.000000
vn 0.000000 0.000000 0.000000
vn 0.000000 0.000000 0.000000
vn 0.000000 0.000000 0.000000
vn 0.000000 0.000000 0.000000
vn 0.000000 0.000000 0.000000
vn 0.000000 0.000000 0.000000
vn 0.000000 0.000000 0.000000
vn 0.000000 0.000000 1.000000
vn 0.000000 0.000000 1.000000
vn -0.000000 0.000000 1.000000
vn -0.000000 0.000000 1.000000
vn -0.000000 0.000000 1.000000
vn -0.000000 0.000000 1.000000
vn 0.000000 0.000000 1.000000
vn 0.000000 0.000000 1.000000
vn 0.000000 0.000000 -1.000000
vn 0.000000 0.000000 -1.000000
vn 0.000000 0.000000 -1.000000
vn 0.000000 0.000000 -1.000000
vn 0.000000 0.000000 -1.000000
vn 0.000000 0.000000 -1.000000
vn 0.000000 0.000000 -1.000000
vn 0.000000 0.000000 -1.000000
vn 0.999999 -0.001643 0.000000
vn 0.999999 -0.001643 0.000000
vn 0.999999 -0.001643 0.000000
vn 0.999999 -0.001643 0.000000
vn 0.001875 -0.999998 0.000000
vn 0.001875 -0.999998 0.000000
vn 0.001875 -0.999998 0.000000
vn 0.001875 -0.999998 0.000000
vn -1.000000 0.000205 0.000000
vn -1.000000 0.000205 0.000000
vn -1.000000 0.000205 0.000000
vn -1.000000 0.000205 0.000000
vn 0.000000 1.000000 0.000000
vn 0.000000 1.000000 0.000000
vn 0.000000 1.000000 0.000000
vn 0.000000 1.000000 0.000000
vn -0.999998 -0.001887 0.000000
vn -0.999998 -0.001887 0.000000
vn -0.999998 -0.001887 0.000000
vn -0.999998 -0.001887 0.000000
vn -0.000197 -1.000000 0.000000
vn -0.000197 -1.000000 0.000000
vn -0.000197 -1.000000 0.000000
vn -0.000197 -1.000000 0.000000
vn 0.999999 -0.001690 0.000000
vn 0.999999 -0.001690 0.000000
vn 0.999999 -0.001690 0.000000
vn 0.999999 -0.001690 0.000000
vn 0.000000 1.000000 0.000000
vn 0.000000 1.000000 0.000000
vn 0.000000 1.000000 0.000000
vn 0.000000 1.000000 0.000000
vn 0.007327 -0.491891 -0.870626
vn 0.000000 -1.000000 0.000380
vn 0.000000 -1.000000 0.000380
vn 0.000000 1.000000 0.000006
vn 0.000000 1.000000 0.000006
vn -0.003427 0.999994 0.000007
vn -0.003427 0.999994 0.000007
vn 0.003427 0.999994 0.000007
vn 0.005170 0.999987 0.000006
vn 0.005170 0.999987 0.000006
vn 0.003427 0.999994 0.000007
vn 0.040106 0.999195 0.000000
vn 0.040106 0.999195 0.000000
vn -0.000000 1.000000 0.000006
vn -0.000000 1.000000 0.000006
vn 0.000000 1.000000 0.000006
vn 0.000000 1.000000 0.000006
vn -0.005170 0.999987 0.000006
vn -0.005170 0.999987 0.000006
vn -0.040106 0.999195 0.000000
vn -0.040106 0.999195 0.000000
vn 0.548534 0.565838 0.615579
vn 0.552363 0.556760 0.620414
vn 0.617901 -0.204425 0.759216
vn 0.619229 -0.197427 0.759986
vn 0.681547 0.731774 -0.000209
vn 0.691102 0.722758 -0.000207
vn 0.691149 0.722713 -0.000207
vn 0.681547 0.731774 -0.000209
vn 0.000292 0.707635 0.706578
vn 0.000298 0.721455 0.692462
vn 0.000123 0.724599 0.689171
vn 0.000145 0.705102 0.709106
vn 0.000001 0.023636 0.999721
vn 0.000002 0.024076 0.999710
vn 0.000000 1.000000 -0.000000
vn 0.000000 1.000000 -0.000000
vn 0.000000 1.000000 -0.000000
vn 0.000000 1.000000 -0.000000
vn 0.000002 0.024059 -0.999711
vn 0.000001 0.023623 -0.999721
vn 0.000233 0.706113 -0.708099
vn 0.000467 0.709550 -0.704655
vn 0.000197 0.725406 -0.688321
vn 0.000477 0.723426 -0.690401
vn 0.548070 0.566547 -0.615340
vn 0.544120 0.575657 -0.610371
vn 0.618771 -0.196897 -0.760496
vn 0.617436 -0.203899 -0.759735
vn 0.059921 -0.031407 0.997709
vn 0.000000 -0.005646 0.999984
vn 0.059863 -0.031384 -0.997713
vn 0.000000 -0.005647 -0.999984
vn 0.900661 -0.434523 0.000001
vn 0.949880 -0.312614 0.000005
vn 0.949881 -0.312613 0.000005
vn 0.900667 -0.434509 0.000001
vn 0.543077 0.578401 0.608704
vn 0.538451 0.588348 -0.603256
vn 0.595262 -0.284123 -0.751623
vn 0.595746 -0.284464 0.751110
vn 0.000000 0.023826 0.999716
vn 0.000000 -0.005814 0.999983
vn 0.000000 0.706406 0.707807
vn 0.000000 -0.005815 -0.999983
vn -0.000000 0.023818 -0.999716
vn 0.000000 0.726796 0.686853
vn 0.000000 1.000000 0.000000
vn 0.000000 1.000000 0.000000
vn 0.000000 0.706408 -0.707805
vn 0.000000 0.726795 -0.686854
vn -0.000145 0.705102 0.709105
vn -0.000123 0.724599 0.689171
vn -0.000298 0.721456 0.692460
vn -0.000292 0.707636 0.706578
vn -0.000197 0.725405 -0.688322
vn -0.000233 0.706113 -0.708100
vn -0.000467 0.709550 -0.704655
vn -0.000477 0.723425 -0.690402
vn -0.548536 0.565837 0.615579
vn -0.619227 -0.197427 0.759987
vn -0.617900 -0.204425 0.759217
vn -0.552364 0.556759 0.620414
vn -0.681546 0.731775 -0.000209
vn -0.681546 0.731775 -0.000209
vn -0.691145 0.722716 -0.000207
vn -0.691098 0.722761 -0.000207
vn -0.548070 0.566548 -0.615339
vn -0.617436 -0.203897 -0.759736
vn -0.618770 -0.196895 -0.760497
vn -0.544121 0.575656 -0.610371
vn -0.000001 0.023623 -0.999721
vn -0.000000 -0.005647 -0.999984
vn -0.059863 -0.031384 -0.997713
vn -0.000002 0.024059 -0.999711
vn -0.000000 -0.005646 0.999984
vn -0.000001 0.023636 0.999721
vn -0.000002 0.024076 0.999710
vn -0.059921 -0.031407 0.997709
vn -0.900660 -0.434524 0.000001
vn -0.900667 -0.434510 0.000001
vn -0.949880 -0.312616 0.000005
vn -0.949879 -0.312617 0.000005
vn 0.000000 1.000000 0.000000
vn 0.000000 1.000000 0.000000
vn 0.000000 1.000000 0.000000
vn 0.000000 1.000000 0.000000
vn -0.543079 0.578403 0.608700
vn -0.538453 0.588349 -0.603253
vn -0.595261 -0.284123 -0.751624
vn -0.595746 -0.284464 0.751110
vn 0.000000 -0.014859 0.999890
vn 0.027832 -0.029521 0.999177
vn 0.000000 -0.014859 0.999890
vn 0.000000 -0.014859 0.999890
vn -0.027832 -0.029521 0.999177
vn -0.584486 -0.319205 0.745979
vn -0.884336 -0.466851 0.000000
vn -0.884336 -0.466851 0.000000
vn -0.027804 -0.029508 -0.999178
vn -0.583967 -0.319016 -0.746466
vn -0.000000 -0.014858 -0.999890
vn 0.000000 -0.014858 -0.999890
vn 0.000000 -0.014858 -0.999890
vn 0.027804 -0.029508 -0.999178
vn 0.583967 -0.319016 -0.746466
vn 0.884336 -0.466851 0.000000
vn 0.884336 -0.466851 0.000000
vn 0.584485 -0.319204 0.745980
vn 0.000000 -1.000000 -0.000003
vn 0.000000 -1.000000 -0.000003
vn 0.000983 -1.000000 -0.000002
vn 0.000983 -1.000000 -0.000002
vn -0.002853 -0.999996 -0.000001
vn -0.002853 -0.999996 -0.000001
vn -0.017589 -0.999845 -0.000003
vn -0.017589 -0.999845 -0.000003
vn -0.000983 -1.000000 -0.000002
vn -0.000983 -1.000000 -0.000002
vn 0.002853 -0.999996 -0.000001
vn 0.002853 -0.999996 -0.000001
vn 0.017589 -0.999845 -0.000003
vn 0.017589 -0.999845 -0.000003
s 1
g MS_Bench
usemtl initialShadingGroup
f 84/379/1 45/380/2 46/381/3 47/382/4
s 2
f 1/1/5 3/2/6 26/3/7 28/4/8
s 3
f 2/5/9 1/1/10 13/6/11 12/7/12
s 4
f 3/8/13 2/9/14 5/10/15 4/11/16
s 5
f 4/12/17 6/13/18 23/14/19 25/15/20
s 6
f 6/13/21 5/16/22 9/17/23 8/18/24
s 7
f 7/19/25 10/20/26 31/21/27 30/22/28
s 5
f 8/18/29 7/23/30 22/24/31 21/25/32
s 4
f 10/26/33 9/27/34 12/28/35 11/29/36
s 7
f 11/30/37 14/31/38 35/32/39 34/33/40
s 2
f 14/34/41 13/6/42 16/35/43 15/36/44
s 7
f 15/37/45 18/38/46 43/39/47 42/40/48
s 10
f 17/41/49 16/35/50 28/4/51 27/42/52
s 11
f 18/43/53 17/44/54 20/45/55 19/46/56
s 7
f 19/47/57 22/48/58 39/49/59 38/50/60
s 12
f 21/25/61 20/51/62 24/52/63 23/14/64
s 11
f 25/53/65 24/54/66 27/55/67 26/56/68
s 1
f 29/57/69 32/58/70 46/59/3 45/60/2
s 13
f 30/61/71 29/57/72 40/62/73 39/63/74
s 1
f 32/64/70 31/65/75 34/66/76 33/67/77
f 33/343/77 36/340/78 49/334/79 48/337/80
s 14
f 36/340/81 35/345/82 42/346/83 41/339/84
s 15
f 37/68/85 40/62/86 54/69/87 53/70/88
f 38/71/89 37/72/85 44/73/90 43/74/91
f 41/339/92 44/344/90 56/341/93 55/335/94
s 1
f 47/382/4 46/381/3 48/385/95 51/386/96
s 14
f 50/333/97 49/334/98 55/335/99 58/336/100
s 15
f 53/393/88 52/394/101 57/395/102 56/396/103
s 4
f 2/9/14 12/28/35 9/27/34 5/10/15
s 11
f 17/44/54 27/55/67 24/54/66 20/45/55
s off
f 26/75/104 3/76/105 4/77/106 25/78/107
s 5
f 6/13/18 8/18/29 21/25/32 23/14/19
s 2
f 28/4/8 16/35/43 13/6/42 1/1/5
s 7
f 11/30/37 34/33/40 31/21/27 10/20/26
f 7/19/25 30/22/28 39/49/59 22/48/58
f 19/47/57 38/50/60 43/39/47 18/38/46
f 15/37/45 42/40/48 35/32/39 14/31/38
s off
f 76/79/108 75/80/109 77/81/110 78/82/111
s 13
f 29/57/72 45/60/112 54/69/113 40/62/73
s off
f 80/83/114 79/84/115 81/85/116 82/86/117
s 14
f 41/339/84 55/335/99 49/334/98 36/340/81
s 3
f 1/1/10 2/5/9 3/2/118
s 6
f 4/12/119 5/16/22 6/13/21
s off
f 7/23/120 8/18/121 9/17/122 10/87/123
f 11/88/124 12/7/125 13/6/126 14/34/127
f 15/36/128 16/35/129 17/41/130 18/89/131
f 19/90/132 20/51/133 21/25/134 22/24/135
s 12
f 23/14/64 24/52/63 25/15/136
s 10
f 26/3/137 27/42/52 28/4/51
s 1
f 29/91/69 30/92/138 31/65/75 32/64/70
f 33/67/77 34/66/76 35/93/139 36/94/78
s 15
f 37/72/85 38/71/89 39/95/140 40/96/86
f 41/97/92 42/98/141 43/74/91 44/73/90
s 1
f 48/337/80 49/334/79 50/333/142 51/338/143
s 15
f 55/335/94 56/341/93 57/342/144 58/336/145
s off
f 33/99/146 48/100/147 59/101/148 60/102/149
f 48/100/150 46/103/151 61/104/152 59/101/153
f 46/103/154 32/105/155 62/106/156 61/104/157
f 32/105/158 33/99/159 60/102/160 62/106/161
f 37/107/162 53/108/163 63/109/164 64/110/165
f 53/108/166 56/111/167 65/112/168 63/109/169
f 56/111/170 44/113/171 66/114/172 65/112/173
f 44/113/174 37/107/175 64/110/176 66/114/177
s 16
f 60/115/178 59/116/179 67/117/180 68/118/181
f 59/116/179 61/119/182 69/120/183 67/117/180
f 61/119/182 62/121/184 70/122/185 69/120/183
f 62/121/184 60/115/178 68/118/181 70/122/185
s 17
f 64/123/186 63/124/187 71/125/188 72/126/189
f 63/124/187 65/127/190 73/128/191 71/125/188
f 65/127/190 66/129/192 74/130/193 73/128/191
f 66/129/192 64/123/186 72/126/189 74/130/193
s off
f 68/131/194 67/132/195 75/133/196 76/134/197
f 67/135/198 69/136/199 77/137/200 75/138/201
f 69/139/202 70/140/203 78/141/204 77/142/205
f 70/143/206 68/144/207 76/145/208 78/146/209
f 72/147/210 71/148/211 79/149/212 80/150/213
f 71/151/214 73/152/215 81/153/216 79/154/217
f 73/155/218 74/156/219 82/157/220 81/158/221
f 74/159/222 72/160/223 80/161/224 82/162/225
s 15
f 54/397/87 83/398/226 52/394/101 53/393/88
f 87/399/227 86/400/228 83/398/226 54/397/87
s 1
f 88/383/229 85/384/230 45/380/2 84/379/1
s 18
f 45/163/231 85/164/232 87/165/233 54/166/234
s 1
f 172/387/235 135/389/236 134/390/237 133/388/238
s 20
f 89/167/239 116/168/240 114/169/241 91/170/242
s 21
f 90/171/243 100/172/244 101/173/245 89/167/246
s 22
f 91/174/247 92/175/248 93/176/249 90/177/250
s 23
f 92/178/251 113/179/252 111/180/253 94/181/254
s 24
f 94/181/255 96/182/256 97/183/257 93/184/258
s 25
f 95/185/259 118/186/260 119/187/261 98/188/262
s 23
f 96/182/263 109/189/264 110/190/265 95/191/266
s 22
f 98/192/267 99/193/268 100/194/269 97/195/270
s 25
f 99/196/271 122/197/272 123/198/273 102/199/274
s 20
f 102/200/275 103/201/276 104/202/277 101/173/278
s 25
f 103/203/279 130/204/280 131/205/281 106/206/282
s 26
f 105/207/283 115/208/284 116/168/285 104/202/286
s 27
f 106/209/287 107/210/288 108/211/289 105/212/290
s 25
f 107/213/291 126/214/292 127/215/293 110/216/294
s 28
f 109/189/295 111/180/296 112/217/297 108/218/298
s 27
f 113/219/299 114/220/300 115/221/301 112/222/302
s 1
f 117/223/303 133/224/238 134/225/237 120/226/304
s 29
f 118/227/305 127/228/306 128/229/307 117/223/308
s 1
f 120/230/304 121/231/309 122/232/310 119/233/311
f 121/360/309 136/355/312 137/350/313 124/354/314
s 32
f 124/354/315 129/353/316 130/358/317 123/359/318
s 15
f 125/234/319 141/235/320 142/236/321 128/229/322
f 126/237/323 131/238/324 132/239/325 125/240/319
f 129/353/326 143/349/327 144/352/328 132/357/325
s 1
f 135/389/236 139/391/329 136/392/330 134/390/237
s 32
f 138/347/331 146/348/332 143/349/333 137/350/334
s 15
f 141/403/320 144/405/335 145/406/336 140/404/337
s 22
f 90/177/250 93/176/249 97/195/270 100/194/269
s 27
f 105/212/290 108/211/289 112/222/302 115/221/301
s off
f 114/241/338 113/242/339 92/243/340 91/244/341
s 23
f 94/181/254 111/180/253 109/189/264 96/182/263
s 20
f 116/168/240 89/167/239 101/173/278 104/202/277
s 25
f 99/196/271 98/188/262 119/187/261 122/197/272
f 95/185/259 110/216/294 127/215/293 118/186/260
f 107/213/291 106/206/282 131/205/281 126/214/292
f 103/203/279 102/199/274 123/198/273 130/204/280
s off
f 164/245/342 166/246/343 165/247/344 163/248/345
s 29
f 117/223/308 128/229/307 142/236/346 133/224/347
s off
f 168/249/348 170/250/349 169/251/350 167/252/351
s 32
f 129/353/316 124/354/315 137/350/334 143/349/333
s 21
f 89/167/246 91/170/352 90/171/243
s 24
f 92/178/353 94/181/255 93/184/258
s off
f 95/191/354 98/253/355 97/183/356 96/182/357
f 99/254/358 102/200/359 101/173/360 100/172/361
f 103/201/362 106/255/363 105/207/364 104/202/365
f 107/256/366 110/190/367 109/189/368 108/218/369
s 28
f 111/180/296 113/179/370 112/217/297
s 26
f 114/169/371 116/168/285 115/208/284
s 1
f 117/257/303 120/230/304 119/233/311 118/258/372
f 121/231/309 124/259/314 123/260/373 122/232/310
s 15
f 125/240/319 128/261/322 127/262/374 126/237/323
f 129/263/326 132/239/325 131/238/324 130/264/375
s 1
f 136/355/312 139/356/376 138/347/377 137/350/313
s 15
f 143/349/327 146/348/378 145/351/379 144/352/328
s off
f 121/265/380 148/266/381 147/267/382 136/268/383
f 136/268/384 147/267/385 149/269/386 134/270/387
f 134/270/388 149/269/389 150/271/390 120/272/391
f 120/272/392 150/271/393 148/266/394 121/265/395
f 125/273/396 152/274/397 151/275/398 141/276/399
f 141/276/400 151/275/401 153/277/402 144/278/403
f 144/278/404 153/277/405 154/279/406 132/280/407
f 132/280/408 154/279/409 152/274/410 125/273/411
s 36
f 148/281/412 156/282/413 155/283/414 147/284/415
f 147/284/415 155/283/414 157/285/416 149/286/417
f 149/286/417 157/285/416 158/287/418 150/288/419
f 150/288/419 158/287/418 156/282/413 148/281/412
s 37
f 152/289/420 160/290/421 159/291/422 151/292/423
f 151/292/423 159/291/422 161/293/424 153/294/425
f 153/294/425 161/293/424 162/295/426 154/296/427
f 154/296/427 162/295/426 160/290/421 152/289/420
s off
f 156/297/428 164/298/429 163/299/430 155/300/431
f 155/301/432 163/302/433 165/303/434 157/304/435
f 157/305/436 165/306/437 166/307/438 158/308/439
f 158/309/440 166/310/441 164/311/442 156/312/443
f 160/313/444 168/314/445 167/315/446 159/316/447
f 159/317/448 167/318/449 169/319/450 161/320/451
f 161/321/452 169/322/453 170/323/454 162/324/455
f 162/325/456 170/326/457 168/327/458 160/328/459
s 15
f 142/401/321 141/403/320 140/404/337 171/402/460
f 87/399/227 142/401/321 171/402/460 86/400/228
s 1
f 88/383/229 172/387/235 133/388/238 85/384/230
s 18
f 133/329/461 142/330/462 87/331/233 85/332/232
s 38
f 172/361/463 171/362/464 140/363/465 135/364/466
f 47/373/467 51/375/468 57/376/469 52/374/470
f 57/376/469 51/375/468 50/377/471 58/378/472
f 47/373/467 52/374/470 83/370/473 84/369/474
f 84/369/474 83/370/473 86/366/475 88/365/476
f 88/365/476 86/366/475 171/362/464 172/361/463
f 139/368/477 145/367/478 146/371/479 138/372/480
f 135/364/466 140/363/465 145/367/478 139/368/477
s 40
f 173/407/481 175/408/482 186/409/483 185/410/484
s 41
f 174/411/485 173/407/486 178/412/487 177/413/488
s 40
f 175/414/489 174/415/490 191/416/491 192/417/492
f 175/414/489 192/417/492 193/418/493 186/419/494
s 43
f 190/420/495 191/421/496 174/422/497 177/423/498
s 44
f 181/424/499 188/425/500 189/426/501 176/427/502
f 190/428/503 177/429/504 176/427/502 189/426/501
f 176/430/505 178/412/506 182/431/507 181/432/508
s 40
f 183/433/509 186/419/494 193/418/493 194/434/510
s 44
f 181/424/499 180/435/511 187/436/512 188/425/500
s 41
f 179/437/513 182/431/514 185/410/515 184/438/516
f 185/410/515 182/431/514 178/412/487 173/407/486
s 40
f 173/407/481 174/411/517 175/408/482
s 44
f 176/430/505 177/413/518 178/412/506
f 179/439/519 180/435/511 181/424/508 182/440/507
s 40
f 183/441/509 184/438/520 185/410/484 186/409/483
f 194/434/510 193/418/493 198/442/521 202/443/522
f 193/418/493 192/417/492 197/444/523 198/442/521
s 44
f 188/425/500 187/436/512 195/445/524 199/446/525
s 40
f 201/447/526 197/444/523 192/417/492 191/416/491
s 43
f 196/448/527 201/449/528 191/421/496 190/420/495
s 44
f 200/450/529 196/451/530 190/428/503 189/426/501
f 199/446/525 200/450/529 189/426/501 188/425/500
s 40
f 222/452/531 221/453/532 204/454/533 205/455/534
s 44
f 220/456/535 219/457/536 206/458/537 207/459/538
s 40
f 203/460/539 215/461/540 216/462/541 205/463/542
s 47
f 204/464/543 207/465/544 208/466/545 203/460/546
s 44
f 206/467/547 211/468/548 212/469/549 208/466/550
f 218/470/551 217/471/552 210/472/553 211/473/554
s 40
f 224/474/555 223/475/556 216/476/557 213/477/558
s 47
f 209/478/559 214/479/560 215/461/561 212/469/562
s 43
f 220/480/563 207/481/564 204/482/565 221/483/566
s 44
f 218/470/551 211/473/554 206/458/537 219/457/536
s 47
f 215/461/561 203/460/546 208/466/545 212/469/562
s 40
f 222/452/531 205/455/534 216/476/557 223/475/556
f 203/460/539 205/463/542 204/464/567
s 44
f 206/467/547 208/466/550 207/465/568
f 209/484/569 212/485/549 211/473/548 210/472/553
s 40
f 213/486/558 216/462/541 215/461/540 214/479/570
f 224/474/555 202/487/522 198/488/521 223/475/556
f 223/475/556 198/488/521 197/489/523 222/452/531
s 44
f 218/470/551 199/490/525 195/491/524 217/471/552
s 40
f 201/492/526 221/453/532 222/452/531 197/489/523
s 43
f 196/493/527 220/480/563 221/483/566 201/494/528
s 44
f 200/495/529 219/457/536 220/456/535 196/496/530
f 199/490/525 218/470/551 219/457/536 200/495/529
s 40
f 183/433/509 194/434/510 225/497/571 238/498/572
f 202/443/522 226/499/573 225/497/571 194/434/510
f 202/487/522 224/474/555 227/500/574 226/501/573
f 224/474/555 213/477/558 228/502/575 227/500/574
f 229/503/576 228/502/575 213/477/558 214/504/570
s 47
f 230/505/577 229/506/578 214/479/560 209/478/559
s 44
f 231/507/579 230/508/580 209/484/569 210/472/553
f 231/507/579 210/472/553 217/471/552 232/509/581
f 217/471/552 195/491/524 233/510/582 232/509/581
f 187/436/512 234/511/583 233/512/582 195/445/524
f 234/511/583 187/436/512 180/435/511 235/513/584
f 236/514/585 235/513/584 180/435/511 179/439/519
s 41
f 237/515/586 236/516/587 179/437/513 184/438/516
s 40
f 238/498/572 237/517/588 184/518/520 183/433/509
s 50
f 233/510/589 226/501/590 227/500/591 232/509/592
f 238/498/593 235/513/594 236/514/595 237/517/596
f 225/497/597 226/499/590 233/512/589 234/511/598
f 227/500/591 228/502/599 231/507/600 232/509/592
f 234/511/598 235/513/594 238/498/593 225/497/597
f 231/507/600 228/502/599 229/503/601 230/508/602
