# This file uses centimeters as units for non-parametric coordinates.

mtllib MS_Table.mtl
g default
v -41.386784 61.122211 90.214890
v -35.442677 61.829700 88.656853
v 0.119088 70.692386 94.742363
v -61.644241 66.987270 74.460312
v -44.054523 73.267635 76.233879
v -37.826756 74.486774 76.425468
v 0.096666 72.900180 76.275482
v -62.730877 72.373737 -66.572548
v -43.913254 74.219562 -66.665977
v -37.736317 72.910946 -66.785561
v 0.104456 73.031322 -66.677803
v -61.646702 67.029262 -74.399666
v -44.048321 73.277980 -76.165298
v -37.815151 74.465419 -76.362915
v 0.128775 72.902134 -76.196938
v -41.377922 61.143390 -90.122498
v -35.442589 61.896801 -88.655472
v 0.160444 70.696445 -94.631371
v -43.638081 68.659511 84.636963
v -58.969547 59.009655 78.982666
v -37.558521 70.392597 85.052139
v -24.705109 66.549389 93.049950
v -25.105749 74.001323 76.299927
v 0.106532 73.769291 85.743835
v 24.964844 66.530254 92.972023
v 25.337463 74.060558 76.273178
v 35.633022 61.768367 88.506516
v 38.101200 74.459430 76.392258
v 41.573013 60.870868 89.876999
v 44.296734 73.195156 76.167290
v 55.146229 54.070507 86.542351
v 59.307571 58.999614 78.901871
v 61.915245 66.959972 74.319603
v -43.913868 74.217991 66.741211
v -62.733582 72.334713 66.642570
v -37.735874 72.919529 66.868500
v -25.161737 72.992344 66.810204
v 0.079748 73.031208 66.757576
v 37.935127 72.918880 66.831367
v 44.121830 74.244053 66.688911
v 62.928989 72.363414 66.540268
v 25.343437 73.010234 66.791695
v -25.147346 72.998378 -66.730988
v 25.383966 73.005176 -66.699722
v 37.983036 72.931186 -66.731796
v 44.167881 74.245411 -66.594254
v 62.984760 72.387020 -66.443947
v -25.090746 73.967563 -76.220749
v 25.395418 73.946857 -76.182800
v 38.146618 74.463131 -76.318535
v 44.350769 73.259792 -76.087357
v 61.969662 66.988620 -74.231430
v -59.034763 59.106258 -79.053497
v -24.661982 66.579960 -92.924728
v 24.997705 66.559238 -92.849800
v 35.722187 61.857776 -88.545364
v 41.652340 60.900943 -89.785004
v 59.358063 59.016430 -78.795113
v 55.263817 54.197139 -86.546478
v -54.753304 54.071949 86.590752
v -58.353355 56.051960 82.649704
v -42.512432 64.890857 87.425934
v -36.500603 66.111141 86.854492
v -24.909525 69.536930 89.366776
v 0.112810 72.230838 90.243103
v 25.160427 69.577091 89.323990
v 36.722492 66.055469 86.759399
v 42.749874 64.718845 87.212761
v 58.721920 56.053951 82.581108
v -43.638828 68.734211 -84.590057
v -37.549374 70.435154 -85.011101
v -25.093901 72.659000 -85.626724
v 0.142599 73.823406 -85.650589
v 25.414240 72.667743 -85.581284
v 37.879936 70.394016 -84.959167
v 43.986221 68.614284 -84.447945
v -25.113937 72.524471 85.683609
v 25.356009 72.623920 85.675964
v 37.811966 70.342571 85.012283
v 43.926731 68.566845 84.548515
v -58.448486 56.233715 -82.801842
v -54.846390 54.262279 -86.741585
v -36.495983 66.165981 -86.833290
v -42.508377 64.938793 -87.356285
v -24.877941 69.619480 -89.275726
v 0.151521 72.259922 -90.140984
v 25.205975 69.613491 -89.215546
v 36.801064 66.125888 -86.752266
v 42.819279 64.757618 -87.116470
v 58.820999 56.162609 -82.563660
v 62.956657 72.375126 0.571323
v 44.144676 74.244732 0.571667
v 37.958893 72.924984 0.575226
v 25.363543 73.007724 0.571144
v 0.092005 73.031269 0.564823
v -25.154598 72.995342 0.564960
v -37.736095 72.915279 0.567265
v -43.913567 74.218776 0.562443
v -62.732239 72.354076 0.559082
vt 0.820662 0.367634
vt 0.830807 0.367567
vt 0.891578 0.367172
vt 0.790708 0.398544
vt 0.820861 0.398348
vt 0.831007 0.398282
vt 0.891778 0.397886
vt 0.792202 0.627953
vt 0.822355 0.627757
vt 0.832500 0.627691
vt 0.893271 0.627296
vt 0.792301 0.643293
vt 0.822454 0.643097
vt 0.832600 0.643031
vt 0.893371 0.642636
vt 0.822654 0.673723
vt 0.832800 0.673657
vt 0.893571 0.673261
vt 0.820761 0.382982
vt 0.790608 0.383179
vt 0.830907 0.382916
vt 0.850990 0.367436
vt 0.851190 0.398151
vt 0.891678 0.382521
vt 0.932125 0.366908
vt 0.932325 0.397622
vt 0.952228 0.366777
vt 0.952428 0.397492
vt 0.962357 0.366711
vt 0.962557 0.397426
vt 0.987263 0.366549
vt 0.992705 0.381863
vt 0.992805 0.397229
vt 0.820961 0.413680
vt 0.790808 0.413876
vt 0.831107 0.413614
vt 0.851290 0.413482
vt 0.891878 0.413218
vt 0.952528 0.412824
vt 0.962657 0.412758
vt 0.992904 0.412561
vt 0.932425 0.412954
vt 0.852684 0.627560
vt 0.933818 0.627032
vt 0.953921 0.626901
vt 0.964050 0.626835
vt 0.994298 0.626638
vt 0.852783 0.642900
vt 0.933918 0.642372
vt 0.954021 0.642241
vt 0.964150 0.642175
vt 0.994398 0.641978
vt 0.792401 0.658651
vt 0.852983 0.673525
vt 0.934117 0.672998
vt 0.954221 0.672867
vt 0.964349 0.672801
vt 0.994498 0.657335
vt 0.989070 0.672640
vt 0.795781 0.367795
vt 0.790559 0.375502
vt 0.820711 0.375306
vt 0.830857 0.375239
vt 0.851040 0.375108
vt 0.891628 0.374844
vt 0.932175 0.374580
vt 0.952278 0.374449
vt 0.962407 0.374383
vt 0.992655 0.374186
vt 0.822554 0.658455
vt 0.832700 0.658388
vt 0.852883 0.658257
vt 0.893471 0.657993
vt 0.934018 0.657729
vt 0.954121 0.657598
vt 0.964250 0.657532
vt 0.851091 0.382785
vt 0.932225 0.382257
vt 0.952328 0.382126
vt 0.962457 0.382060
vt 0.792451 0.666292
vt 0.797807 0.673885
vt 0.832750 0.666030
vt 0.822604 0.666096
vt 0.852933 0.665898
vt 0.893521 0.665634
vt 0.934067 0.665370
vt 0.954171 0.665239
vt 0.964300 0.665174
vt 0.994547 0.664977
vt 0.993596 0.518739
vt 0.963348 0.518936
vt 0.953219 0.519002
vt 0.933116 0.519133
vt 0.892569 0.519397
vt 0.851981 0.519661
vt 0.831798 0.519792
vt 0.821652 0.519858
vt 0.791499 0.520054
vn -0.389635 0.507985 0.768203
vn -0.509548 0.499935 0.700304
vn -0.472888 0.477896 0.740265
vn -0.342286 0.501024 0.794868
vn -0.222291 0.525328 0.821351
vn -0.258606 0.517665 0.815565
vn -0.150933 0.838236 0.524003
vn -0.061249 0.956543 0.285085
vn -0.002654 0.999767 0.021420
vn -0.056734 0.990287 0.126934
vn -0.000377 0.872109 0.489311
vn -0.186284 0.780767 0.596407
vn -0.237478 0.773294 0.587895
vn 0.000312 0.871749 0.489953
vn -0.001438 0.982413 0.186715
vn 0.062128 0.956215 0.285994
vn 0.003342 0.999800 0.019716
vn -0.001178 0.999965 -0.008292
vn 0.160505 0.833730 0.528330
vn 0.063208 0.989720 0.128290
vn 0.405464 0.619004 0.672631
vn 0.288214 0.840771 0.458297
vn 0.467010 0.563813 0.681188
vn 0.339534 0.777782 0.528934
vn -0.402976 0.629453 -0.664379
vn -0.467338 0.573194 -0.673085
vn -0.338237 0.782767 -0.522371
vn -0.285043 0.845420 -0.451682
vn -0.151858 0.840758 -0.519678
vn -0.056393 0.990843 -0.122679
vn -0.222171 0.522848 -0.822964
vn -0.183218 0.776311 -0.603136
vn -0.234448 0.768626 -0.595187
vn -0.257551 0.515311 -0.817387
vn 0.000229 0.983442 -0.181221
vn -0.060764 0.958219 -0.279507
vn -0.002978 0.999859 -0.016546
vn 0.000110 0.999928 0.012037
vn 0.000624 0.868693 -0.495350
vn 0.184824 0.774387 -0.605116
vn 0.236628 0.766513 -0.597047
vn 0.000889 0.868302 -0.496035
vn 0.233245 0.511687 -0.826906
vn 0.270690 0.502991 -0.820809
vn 0.384845 0.506590 -0.771532
vn 0.333992 0.500056 -0.798995
vn 0.495512 0.508256 -0.704374
vn 0.449409 0.489244 -0.747444
vn 0.240422 0.767134 0.594730
vn 0.187877 0.775101 0.603259
vn 0.271239 0.499883 0.822524
vn 0.233185 0.508549 0.828856
vn 0.333142 0.495194 0.802371
vn 0.382499 0.499582 0.777247
vn 0.454159 0.481520 0.749585
vn 0.496474 0.498124 0.710905
vn -0.000240 0.999955 -0.009542
vn 0.058071 0.998229 -0.012928
vn 0.000168 0.999952 -0.009765
vn -0.000358 0.999982 -0.005921
vn -0.057941 0.998239 -0.012747
vn 0.038465 0.998771 0.031243
vn 0.114410 0.992568 0.041458
vn 0.003115 0.999850 -0.017043
vn 0.061549 0.958193 -0.279424
vn 0.058478 0.990299 -0.126052
vn 0.158091 0.836966 -0.523922
vn 0.288008 0.841570 -0.456959
vn 0.406543 0.621072 -0.670069
vn 0.340542 0.777813 -0.528241
vn 0.467715 0.566237 -0.678689
vn -0.406332 0.621264 0.670019
vn -0.471063 0.563172 0.678923
vn -0.287622 0.842190 0.456058
vn -0.340325 0.778788 0.526942
vn -0.039359 0.998763 0.030382
vn -0.114260 0.992625 0.040502
vn -0.022343 0.999750 0.000107
vn -0.098597 0.995127 0.000150
vn 0.065055 0.997882 -0.000015
vn -0.003068 0.999995 0.000012
vn -0.000244 1.000000 0.000002
vn 0.002806 0.999996 -0.000002
vn -0.065685 0.997840 0.000012
vn 0.021862 0.999761 0.000093
vn 0.098892 0.995098 0.000131
vn -0.112977 0.992808 -0.039596
vn -0.038071 0.998833 -0.029733
vn 0.058180 0.998228 0.012470
vn -0.000431 0.999958 0.009158
vn -0.000150 0.999986 0.005376
vn 0.000037 0.999960 0.008900
vn -0.058835 0.998194 0.012165
vn 0.037996 0.998821 -0.030227
vn 0.113695 0.992702 -0.040215
vn -0.382859 0.514626 -0.767189
vn -0.333335 0.506134 -0.795434
vn -0.458788 0.487411 -0.742930
vn -0.500037 0.510664 -0.699418
s 1
g Table_tissu MS_Table
usemtl lambert1SG
f 62/62/1 61/61/2 60/60/3 1/1/4
f 63/63/5 62/62/1 1/1/4 2/2/6
f 21/21/7 77/77/8 23/23/9 6/6/10
f 65/65/11 64/64/12 22/22/13 3/3/14
f 24/24/15 78/78/16 26/26/17 7/7/18
f 78/78/16 79/79/19 28/28/20 26/26/17
f 79/79/19 80/80/21 30/30/22 28/28/20
f 80/80/21 32/32/23 33/33/24 30/30/22
f 70/70/25 53/53/26 12/12/27 13/13/28
f 71/71/29 70/70/25 13/13/28 14/14/30
f 83/83/31 85/85/32 54/54/33 17/17/34
f 73/73/35 72/72/36 48/48/37 15/15/38
f 86/86/39 87/87/40 55/55/41 18/18/42
f 87/87/40 88/88/43 56/56/44 55/55/41
f 88/88/43 89/89/45 57/57/46 56/56/44
f 89/89/45 90/90/47 59/59/48 57/57/46
f 63/63/5 2/2/6 22/22/13 64/64/12
f 63/63/5 64/64/12 77/77/8 21/21/7
f 65/65/11 3/3/14 25/25/49 66/66/50
f 65/65/11 66/66/50 78/78/16 24/24/15
f 66/66/50 25/25/49 27/27/51 67/67/52
f 66/66/50 67/67/52 79/79/19 78/78/16
f 67/67/52 27/27/51 29/29/53 68/68/54
f 67/67/52 68/68/54 80/80/21 79/79/19
f 68/68/54 29/29/53 31/31/55 69/69/56
f 68/68/54 69/69/56 32/32/23 80/80/21
f 6/6/10 23/23/9 37/37/57 36/36/58
f 7/7/18 26/26/17 42/42/59 38/38/60
f 26/26/17 28/28/20 39/39/61 42/42/59
f 28/28/20 30/30/22 40/40/62 39/39/61
f 30/30/22 33/33/24 41/41/63 40/40/62
f 71/71/29 14/14/30 48/48/37 72/72/36
f 73/73/35 15/15/38 49/49/64 74/74/65
f 74/74/65 49/49/64 50/50/66 75/75/67
f 75/75/67 50/50/66 51/51/68 76/76/69
f 76/76/69 51/51/68 52/52/70 58/58/71
f 62/62/1 19/19/72 20/20/73 61/61/2
f 19/19/72 5/5/74 4/4/75 20/20/73
f 63/63/5 21/21/7 19/19/72 62/62/1
f 21/21/7 6/6/10 5/5/74 19/19/72
f 65/65/11 24/24/15 77/77/8 64/64/12
f 24/24/15 7/7/18 23/23/9 77/77/8
f 4/4/75 5/5/74 34/34/76 35/35/77
f 5/5/74 6/6/10 36/36/58 34/34/76
f 23/23/9 7/7/18 38/38/60 37/37/57
f 98/98/78 99/99/79 35/35/77 34/34/76
f 97/97/80 98/98/78 34/34/76 36/36/58
f 96/96/81 97/97/80 36/36/58 37/37/57
f 95/95/82 96/96/81 37/37/57 38/38/60
f 94/94/83 95/95/82 38/38/60 42/42/59
f 93/93/84 94/94/83 42/42/59 39/39/61
f 92/92/85 93/93/84 39/39/61 40/40/62
f 91/91/86 92/92/85 40/40/62 41/41/63
f 12/12/27 8/8/87 9/9/88 13/13/28
f 13/13/28 9/9/88 10/10/89 14/14/30
f 14/14/30 10/10/89 43/43/90 48/48/37
f 48/48/37 43/43/90 11/11/91 15/15/38
f 15/15/38 11/11/91 44/44/92 49/49/64
f 49/49/64 44/44/92 45/45/93 50/50/66
f 50/50/66 45/45/93 46/46/94 51/51/68
f 51/51/68 46/46/94 47/47/95 52/52/70
f 84/84/96 16/16/97 82/82/98 81/81/99
f 84/84/96 81/81/99 53/53/26 70/70/25
f 83/83/31 17/17/34 16/16/97 84/84/96
f 83/83/31 84/84/96 70/70/25 71/71/29
f 83/83/31 71/71/29 72/72/36 85/85/32
f 86/86/39 18/18/42 54/54/33 85/85/32
f 86/86/39 85/85/32 72/72/36 73/73/35
f 86/86/39 73/73/35 74/74/65 87/87/40
f 87/87/40 74/74/65 75/75/67 88/88/43
f 88/88/43 75/75/67 76/76/69 89/89/45
f 89/89/45 76/76/69 58/58/71 90/90/47
f 46/46/94 92/92/85 91/91/86 47/47/95
f 45/45/93 93/93/84 92/92/85 46/46/94
f 44/44/92 94/94/83 93/93/84 45/45/93
f 11/11/91 95/95/82 94/94/83 44/44/92
f 43/43/90 96/96/81 95/95/82 11/11/91
f 10/10/89 97/97/80 96/96/81 43/43/90
f 9/9/88 98/98/78 97/97/80 10/10/89
f 8/8/87 99/99/79 98/98/78 9/9/88
g default
v 24.845445 1.068129 -24.845447
v -0.000002 0.913287 -33.212744
v -24.845447 1.068129 -24.845445
v -33.212746 0.913287 -0.000000
v -24.845447 1.068129 24.845445
v -0.000002 0.913287 33.212744
v 24.845445 1.068129 24.845447
v 33.212744 0.913287 0.000000
v 25.245204 16.441761 -25.245206
v -0.000002 16.441761 -35.702110
v -25.245209 16.441761 -25.245206
v -35.702113 16.441761 0.000000
v -25.245209 16.441761 25.245206
v -0.000002 16.441761 35.702110
v 25.245204 16.441761 25.245209
v 35.702110 16.441761 -0.000000
v -0.000002 0.714204 0.000000
v -0.000001 16.808978 -22.173610
v -15.679109 16.808978 -15.679108
v -22.173608 16.808978 0.000000
v -15.679109 16.808978 15.679108
v -0.000001 16.808978 22.173610
v 15.679108 16.808978 15.679111
v 22.173608 16.808978 0.000001
v 15.679107 16.808978 -15.679108
v -0.000007 47.433014 -28.737062
v -20.320174 47.433014 -20.320172
v -28.737060 47.433011 0.000000
v -20.320175 47.433014 20.320172
v -0.000006 47.433014 28.737062
v 20.320168 47.433011 20.320173
v 28.737060 47.433011 -0.000002
v 20.320166 47.433011 -20.320178
v -0.000009 71.446463 -66.405398
v -0.000001 71.446479 -0.000002
v -50.782764 71.446479 -50.782678
v -66.405424 71.446463 0.000001
v -50.782764 71.446484 50.782673
v -0.000008 71.446490 66.405393
v 50.782749 71.446495 50.782751
v 66.405425 71.446468 -0.000006
v 50.782759 71.446474 -50.782761
v -0.000045 47.935311 -81.644198
v -57.731180 47.935311 -57.731163
v -62.463818 71.148877 -62.463757
v -0.000045 71.148887 -88.337130
v -81.644186 47.935303 -0.000000
v -88.337142 71.148871 0.000000
v -57.731180 47.935314 57.731163
v -62.463813 71.148882 62.463757
v -0.000037 47.935311 81.644198
v -0.000037 71.148893 88.337130
v 57.731141 47.935298 57.731173
v 62.463774 71.148882 62.463806
v 81.644186 47.935290 -0.000001
v 88.337147 71.148871 -0.000002
v 57.731141 47.935298 -57.731173
v 62.463774 71.148871 -62.463811
v 26.327699 8.677524 -26.327702
v 37.232986 8.677524 0.000000
v 26.327704 8.677524 26.327704
v -0.000002 8.677524 37.232988
v -26.327704 8.677524 26.327702
v -37.232991 8.677524 0.000000
v -26.327704 8.677524 -26.327702
v -0.000002 8.677524 -37.232988
v -63.788528 68.172782 -63.788482
v -0.000050 68.172799 -90.210553
v 63.788480 68.172777 -63.788516
v 90.210551 68.172766 -0.000001
v 63.788485 68.172772 63.788516
v -0.000042 68.172799 90.210544
v -63.788523 68.172782 63.788482
v -90.210566 68.172772 0.000000
v -63.788528 50.911416 -63.788502
v -0.000051 50.911416 -90.210553
v 63.788480 50.911400 -63.788516
v 90.210561 50.911389 -0.000001
v 63.788485 50.911400 63.788516
v -0.000042 50.911416 90.210563
v -63.788523 50.911411 63.788502
v -90.210566 50.911405 0.000000
v -0.000001 42.703203 -19.914949
v 14.081990 42.703203 -14.081994
v 19.914947 42.703203 -0.000001
v 14.081990 42.703203 14.081993
v -0.000001 42.703203 19.914949
v -14.081993 42.703203 14.081992
v -19.914946 42.703203 0.000000
v -14.081993 42.703203 -14.081992
v -0.000001 21.319583 -19.914947
v 14.081990 21.319583 -14.081992
v 19.914946 21.319583 0.000000
v 14.081992 21.319583 14.081994
v -0.000001 21.319583 19.914948
v -14.081992 21.319583 14.081992
v -19.914947 21.319583 0.000000
v -14.081992 21.319583 -14.081993
v 26.676313 14.450931 -26.676316
v 37.726008 14.450931 0.000000
v 26.676316 14.450931 26.676318
v -0.000002 14.450931 37.726010
v -26.676318 14.450931 26.676316
v -37.726008 14.450931 0.000000
v -26.676318 14.450931 -26.676316
v -0.000002 14.450931 -37.726005
v 26.676313 2.904117 -26.676316
v 37.726005 2.904116 0.000000
v 26.676313 2.904116 26.676318
v -0.000002 2.904116 37.726008
v -26.676320 2.904116 26.676316
v -37.726010 2.904116 0.000000
v -26.676318 2.904116 -26.676318
v -0.000002 2.904116 -37.726008
v -33.699515 71.148893 81.357722
v 10.962815 47.433017 26.466591
v 39.034700 47.637682 39.034712
v 33.699454 71.148893 81.357747
v 26.466586 47.433011 10.962821
v 55.203412 47.637676 -0.000002
v 81.357744 71.148877 33.699490
v 26.466584 47.433014 -10.962823
v 39.034693 47.637682 -39.034717
v 81.357744 71.148861 -33.699493
v 10.962814 47.433017 -26.466591
v 33.699449 71.148871 -81.357756
v -34.414212 68.172788 -83.083139
v 34.414131 68.172782 -83.083159
v 83.083137 68.172772 -34.414180
v 83.083147 68.172772 34.414180
v 34.414139 68.172793 83.083159
v -34.414205 68.172793 83.083139
v -83.083161 68.172772 34.414158
v -83.083171 68.172772 -34.414158
v 34.291265 8.677524 -14.203908
v 34.745327 14.450932 -14.391987
v 34.291265 8.677524 14.203908
v 34.745327 14.450932 14.391988
v 14.203905 8.677524 34.291267
v 14.391986 14.450932 34.745330
v -14.203910 8.677524 34.291267
v -14.391989 14.450932 34.745327
v -34.291267 8.677524 14.203908
v -34.745330 14.450932 14.391987
v -34.291267 8.677524 -14.203908
v -34.745330 14.450932 -14.391987
v -14.203910 8.677524 -34.291265
v -14.391989 14.450932 -34.745327
v 14.203905 8.677524 -34.291265
v 14.391984 14.450932 -34.745327
v -63.915120 70.256053 -63.915069
v -0.000050 70.256064 -90.389570
v 63.915062 70.256048 -63.915098
v 90.389578 70.256042 -0.000001
v 63.915067 70.256053 63.915098
v -0.000042 70.256069 90.389570
v -63.915111 70.256053 63.915069
v -90.389583 70.256042 0.000000
v 7.597294 42.703201 -18.341496
v -0.000001 46.819006 -19.914946
v 14.081992 46.819006 -14.081997
v 18.341493 42.703201 -7.597298
v 19.914943 46.819006 -0.000002
v 18.341493 42.703201 7.597296
v 14.081993 46.819006 14.081995
v 7.597294 42.703201 18.341495
v -0.000001 46.819006 19.914946
v -7.597297 42.703201 18.341495
v -14.081995 46.819006 14.081994
v -18.341495 42.703201 7.597296
v -19.914946 46.819006 0.000000
v -18.341495 42.703201 -7.597296
v -14.081995 46.819006 -14.081994
v -7.597297 42.703201 -18.341495
v 26.792518 15.844513 -26.792520
v 37.890345 15.844513 0.000000
v 26.792520 15.844513 26.792523
v -0.000002 15.844513 37.890343
v -26.792523 15.844513 26.792520
v -37.890345 15.844513 0.000000
v -26.792523 15.844513 -26.792520
v -0.000002 15.844513 -37.890343
v 15.231816 0.913287 -30.588651
v -0.000002 1.510536 -37.890343
v 14.391984 2.904116 -34.745327
v 26.792518 1.510536 -26.792520
v -15.231821 0.913287 -30.588651
v -26.792523 1.510536 -26.792520
v -14.391989 2.904116 -34.745327
v -30.588654 0.913287 -15.231819
v -37.890345 1.510536 0.000000
v -34.745330 2.904116 -14.391987
v -30.588654 0.913287 15.231819
v -26.792523 1.510536 26.792520
v -34.745330 2.904116 14.391987
v -15.231821 0.913287 30.588651
v -0.000002 1.510536 37.890343
v -14.391989 2.904116 34.745327
v 15.231816 0.913287 30.588651
v 26.792520 1.510536 26.792523
v 14.391986 2.904116 34.745330
v 30.588651 0.913287 15.231819
v 37.890345 1.510536 0.000000
v 34.745327 2.904116 14.391988
v 30.588651 0.913287 -15.231819
v 34.745327 2.904116 -14.391987
v -0.000002 0.714204 -18.992124
v -18.992127 0.714204 0.000000
v -0.000002 0.714204 18.992125
v 18.992124 0.714204 0.000000
v -0.000002 71.446463 -36.729273
v -30.286724 71.446474 -61.158751
v -61.158826 71.446474 -30.286655
v -36.729295 71.446468 0.000001
v -61.158826 71.446474 30.286655
v -30.286724 71.446484 61.158756
v -0.000002 71.446484 36.729273
v 30.286714 71.446495 61.158814
v 61.158832 71.446484 30.286716
v 36.729296 71.446474 -0.000004
v 61.158832 71.446474 -30.286726
v 30.286714 71.446474 -61.158824
v -13.619899 16.441762 -32.881338
v -20.470460 16.640844 -20.470459
v -8.458948 16.808978 -20.421704
v -0.000002 16.640844 -28.949596
v -32.881340 16.441762 -13.619897
v -28.949598 16.640844 0.000000
v -20.421704 16.808978 -8.458946
v -32.881340 16.441762 13.619897
v -20.470460 16.640844 20.470459
v -20.421704 16.808978 8.458946
v -13.619899 16.441762 32.881338
v -0.000002 16.640844 28.949598
v -8.458948 16.808978 20.421704
v 13.619895 16.441762 32.881338
v 20.470458 16.640844 20.470460
v 8.458946 16.808978 20.421704
v 32.881338 16.441762 13.619897
v 28.949598 16.640844 0.000000
v 20.421702 16.808978 8.458948
v 32.881338 16.441762 -13.619897
v 20.470456 16.640844 -20.470459
v 20.421702 16.808978 -8.458946
v 13.619895 16.441762 -32.881338
v 8.458945 16.808978 -20.421704
v -14.081994 17.313380 -14.081994
v -7.597296 21.319584 -18.341495
v -0.000001 17.313380 -19.914945
v -19.914946 17.313380 0.000000
v -18.341495 21.319584 -7.597296
v -14.081994 17.313380 14.081994
v -18.341495 21.319584 7.597296
v -0.000001 17.313380 19.914946
v -7.597296 21.319584 18.341495
v 14.081993 17.313380 14.081995
v 7.597294 21.319584 18.341495
v 19.914943 17.313380 0.000001
v 18.341493 21.319584 7.597297
v 14.081992 17.313380 -14.081994
v 18.341493 21.319584 -7.597296
v 7.597294 21.319584 -18.341495
v -31.146244 47.935311 -75.193604
v -63.915115 48.828145 -63.915089
v -34.414212 50.911416 -83.083159
v -0.000050 48.828143 -90.389590
v -75.193606 47.935306 -31.146210
v -90.389583 48.828135 0.000000
v -83.083161 50.911405 -34.414170
v -75.193601 47.935306 31.146210
v -63.915115 48.828145 63.915089
v -83.083161 50.911411 34.414170
v -31.146237 47.935311 75.193604
v -0.000042 48.828143 90.389590
v -34.414205 50.911416 83.083159
v 31.146181 47.935303 75.193604
v 63.915067 48.828127 63.915098
v 34.414139 50.911411 83.083169
v 75.193592 47.935292 31.146213
v 90.389578 48.828121 -0.000002
v 83.083157 50.911395 34.414180
v 75.193592 47.935292 -31.146215
v 63.915062 48.828127 -63.915103
v 83.083147 50.911389 -34.414180
v 31.146171 47.935303 -75.193604
v 34.414131 50.911411 -83.083169
v -10.962826 47.433017 -26.466589
v -39.034720 47.637693 -39.034707
v -0.000025 47.637693 -55.203419
v -33.699522 71.148882 -81.357722
v -26.466589 47.433017 -10.962820
v -55.203416 47.637687 0.000000
v -81.357759 71.148871 -33.699459
v -26.466589 47.433017 10.962820
v -39.034717 47.637693 39.034707
v -81.357754 71.148871 33.699459
v -10.962826 47.433017 26.466589
v -0.000022 47.637693 55.203419
v 14.454677 1.510535 -34.896681
v -14.454682 1.510535 -34.896681
v -34.896683 1.510535 -14.454679
v -34.896683 1.510535 14.454679
v -14.454682 1.510535 34.896683
v 14.454678 1.510535 34.896685
v 34.896683 1.510535 14.454681
v 34.896681 1.510535 -14.454679
v -17.491587 0.714204 -17.491585
v -17.491587 0.714204 17.491585
v 17.491585 0.714204 17.491586
v 17.491584 0.714204 -17.491585
v -33.827367 71.446468 -33.827316
v -33.827367 71.446474 33.827316
v 33.827365 71.446484 33.827355
v 33.827365 71.446468 -33.827362
v -11.043901 16.640844 -26.662332
v -26.662332 16.640844 -11.043900
v -26.662332 16.640844 11.043900
v -11.043901 16.640844 26.662332
v 11.043898 16.640844 26.662335
v 26.662335 16.640844 11.043900
v 26.662332 16.640844 -11.043900
v 11.043898 16.640844 -26.662332
v -7.597297 17.313378 -18.341494
v -18.341495 17.313378 -7.597296
v -18.341495 17.313378 7.597296
v -7.597297 17.313378 18.341495
v 7.597294 17.313378 18.341497
v 18.341494 17.313378 7.597297
v 18.341493 17.313378 -7.597296
v 7.597294 17.313378 -18.341493
v -34.482506 48.828151 -83.248027
v -83.248029 48.828140 -34.482465
v -83.248039 48.828140 34.482465
v -34.482501 48.828151 83.248027
v 34.482430 48.828140 83.248046
v 83.248024 48.828124 34.482469
v 83.248024 48.828124 -34.482474
v 34.482423 48.828140 -83.248036
v -21.059413 47.637695 -50.841870
v -50.841872 47.637693 -21.059393
v -50.841872 47.637693 21.059393
v -21.059411 47.637695 50.841870
v 21.059374 47.637690 50.841875
v 50.841863 47.637682 21.059396
v 50.841863 47.637682 -21.059398
v 21.059372 47.637690 -50.841875
v -34.482506 70.256064 -83.248007
v 34.482423 70.256059 -83.248027
v 83.248024 70.256042 -34.482472
v 83.248024 70.256042 34.482469
v 34.482430 70.256064 83.248027
v -34.482499 70.256064 83.248007
v -83.248029 70.256042 34.482447
v -83.248039 70.256042 -34.482447
v 7.597294 46.819011 -18.341497
v 18.341493 46.819011 -7.597299
v 18.341494 46.819011 7.597296
v 7.597294 46.819011 18.341497
v -7.597297 46.819011 18.341495
v -18.341495 46.819011 7.597296
v -18.341495 46.819011 -7.597296
v -7.597297 46.819011 -18.341495
v 34.896683 15.844512 -14.454679
v 34.896683 15.844512 14.454681
v 14.454678 15.844512 34.896685
v -14.454682 15.844512 34.896685
v -34.896683 15.844512 14.454679
v -34.896683 15.844512 -14.454679
v -14.454682 15.844512 -34.896681
v 14.454677 15.844512 -34.896681
v -0.000002 46.862839 -20.544771
v 7.837566 46.862848 -18.921564
v 14.527345 46.862839 -14.527351
v 18.921559 46.862848 -7.837570
v 20.544769 46.862839 -0.000002
v 18.921561 46.862848 7.837568
v 14.527348 46.862839 14.527350
v 7.837566 46.862848 18.921564
v -0.000001 46.862839 20.544771
v -7.837569 46.862848 18.921562
v -14.527350 46.862839 14.527348
v -18.921562 46.862848 7.837567
v -20.544771 46.862839 0.000000
v -18.921562 46.862848 -7.837567
v -14.527350 46.862839 -14.527348
v -7.837569 46.862848 -18.921562
vt 0.329122 0.936788
vt 0.950171 0.936788
vt 0.951496 0.042819
vt 0.406013 0.936788
vt 0.890547 0.009893
vt 0.483600 0.936788
vt 0.822093 0.020528
vt 0.561665 0.936788
vt 0.789168 0.081477
vt 0.639652 0.936788
vt 0.799802 0.149930
vt 0.717657 0.936788
vt 0.860751 0.182856
vt 0.795708 0.936788
vt 0.929204 0.172222
vt 0.873303 0.936788
vt 0.962130 0.111272
vt 0.550647 0.407513
vt 0.950171 0.989842
vt 0.329122 0.989842
vt 0.492715 0.364301
vt 0.406013 0.989842
vt 0.482307 0.292782
vt 0.483600 0.989842
vt 0.525518 0.234850
vt 0.561665 0.989842
vt 0.597038 0.224442
vt 0.639652 0.989842
vt 0.654970 0.267654
vt 0.717657 0.989842
vt 0.665378 0.339173
vt 0.795708 0.989842
vt 0.622167 0.397105
vt 0.873303 0.989842
vt 0.875649 0.096375
vt 0.523429 0.346007
vt 0.516961 0.301564
vt 0.543813 0.265564
vt 0.588256 0.259096
vt 0.624256 0.285948
vt 0.630724 0.330391
vt 0.603872 0.366391
vt 0.559429 0.372859
vt 0.228152 0.170247
vt 0.180483 0.203511
vt 0.170297 0.260740
vt 0.203561 0.308409
vt 0.260790 0.318595
vt 0.308459 0.285331
vt 0.318645 0.228102
vt 0.285381 0.180433
vt 0.147937 0.568838
vt 0.244303 0.715456
vt 0.282732 0.529640
vt 0.390921 0.619090
vt 0.430119 0.753885
vt 0.340669 0.862074
vt 0.205874 0.901272
vt 0.097685 0.811822
vt 0.058487 0.677027
vt 0.198118 0.033730
vt 0.062713 0.128217
vt 0.291573 0.486894
vt 0.116109 0.520412
vt 0.033780 0.290774
vt 0.439348 0.587261
vt 0.128267 0.426179
vt 0.472866 0.762725
vt 0.290824 0.455112
vt 0.372498 0.910501
vt 0.426229 0.360625
vt 0.197034 0.944019
vt 0.455162 0.198068
vt 0.049259 0.843651
vt 0.360675 0.062664
vt 0.015741 0.668187
vt 0.950171 0.963939
vt 0.329122 0.963939
vt 0.873303 0.963939
vt 0.795708 0.963939
vt 0.717657 0.963939
vt 0.639652 0.963939
vt 0.561665 0.963939
vt 0.483600 0.963939
vt 0.406013 0.963939
vt 0.781486 0.752961
vt 0.722666 0.195781
vt 0.722650 0.381524
vt 0.722635 0.567268
vt 0.781433 0.010004
vt 0.781501 0.195782
vt 0.781488 0.381525
vt 0.781477 0.567268
vt 0.735933 0.753038
vt 0.677053 0.195772
vt 0.677039 0.381517
vt 0.677022 0.567260
vt 0.735880 0.010082
vt 0.735889 0.195774
vt 0.735877 0.381518
vt 0.735864 0.567261
vt 0.562366 0.021803
vt 0.628636 0.048780
vt 0.656426 0.114736
vt 0.629432 0.181017
vt 0.563478 0.208785
vt 0.497208 0.181808
vt 0.469417 0.115853
vt 0.496411 0.049571
vt 0.563676 0.062069
vt 0.601129 0.078159
vt 0.616191 0.116051
vt 0.600061 0.153498
vt 0.562168 0.168520
vt 0.524714 0.152429
vt 0.509653 0.114538
vt 0.525783 0.077091
vt 0.950171 0.979866
vt 0.329122 0.979866
vt 0.873303 0.979866
vt 0.795708 0.979866
vt 0.717657 0.979866
vt 0.639652 0.979866
vt 0.561665 0.979866
vt 0.483600 0.979866
vt 0.406013 0.979866
vt 0.329122 0.948030
vt 0.950171 0.948030
vt 0.873303 0.948030
vt 0.795708 0.948030
vt 0.717657 0.948030
vt 0.639652 0.948030
vt 0.561665 0.948030
vt 0.483600 0.948030
vt 0.406013 0.948030
vt 0.366376 0.944185
vt 0.444354 0.944185
vt 0.522381 0.944185
vt 0.600566 0.944185
vt 0.678746 0.944185
vt 0.756927 0.944185
vt 0.834952 0.944185
vt 0.912898 0.944185
vt 0.837951 0.042986
vt 0.822260 0.134072
vt 0.913347 0.149763
vt 0.929037 0.058677
vt 0.269902 0.591679
vt 0.368080 0.741055
vt 0.218705 0.839233
vt 0.120526 0.689858
vt 0.498294 0.326973
vt 0.512647 0.270331
vt 0.562847 0.240429
vt 0.619489 0.254782
vt 0.649391 0.304983
vt 0.635038 0.361624
vt 0.584837 0.391526
vt 0.528196 0.377173
vt 0.546499 0.073900
vt 0.522023 0.097601
vt 0.521493 0.131704
vt 0.545220 0.156160
vt 0.579345 0.156689
vt 0.603820 0.132987
vt 0.604351 0.098884
vt 0.580623 0.074429
vt 0.671527 0.102892
vt 0.730325 0.660135
vt 0.730352 0.474393
vt 0.730363 0.288650
vt 0.730361 0.102893
vt 0.671482 0.660134
vt 0.671512 0.474392
vt 0.671526 0.288649
vt 0.161258 0.125172
vt 0.101309 0.218940
vt 0.125222 0.327634
vt 0.218990 0.387583
vt 0.327684 0.363670
vt 0.387633 0.269902
vt 0.363720 0.161208
vt 0.269952 0.101259
vt 0.199535 0.481105
vt 0.046935 0.581403
vt 0.009953 0.760224
vt 0.110250 0.912825
vt 0.289072 0.949807
vt 0.441672 0.849509
vt 0.478654 0.670688
vt 0.378356 0.518088
vt 0.253658 0.192804
vt 0.287466 0.214419
vt 0.296088 0.253608
vt 0.274473 0.287416
vt 0.235284 0.296038
vt 0.201476 0.274423
vt 0.192854 0.235234
vt 0.214469 0.201426
vt 0.912898 0.983708
vt 0.834952 0.983708
vt 0.756927 0.983708
vt 0.678746 0.983708
vt 0.600566 0.983708
vt 0.522381 0.983708
vt 0.444354 0.983708
vt 0.366376 0.983708
vt 0.366376 0.936788
vt 0.929031 0.023558
vt 0.406013 0.944185
vt 0.366376 0.948030
vt 0.329122 0.944185
vt 0.950171 0.944185
vt 0.453491 0.936788
vt 0.849708 0.009894
vt 0.483600 0.944185
vt 0.444354 0.948030
vt 0.517216 0.936788
vt 0.802832 0.042993
vt 0.561665 0.944185
vt 0.522381 0.948030
vt 0.607723 0.936788
vt 0.789168 0.122315
vt 0.639652 0.944185
vt 0.600566 0.948030
vt 0.671574 0.936788
vt 0.822267 0.169191
vt 0.717657 0.944185
vt 0.678746 0.948030
vt 0.762080 0.936788
vt 0.901589 0.182856
vt 0.795708 0.944185
vt 0.756927 0.948030
vt 0.825800 0.936788
vt 0.948465 0.149756
vt 0.873303 0.944185
vt 0.834952 0.948030
vt 0.912898 0.936788
vt 0.962130 0.070434
vt 0.912898 0.948030
vt 0.884168 0.046924
vt 0.826198 0.087856
vt 0.867130 0.145825
vt 0.925100 0.104893
vt 0.191002 0.634361
vt 0.222421 0.536469
vt 0.335388 0.559832
vt 0.325399 0.662155
vt 0.423290 0.693573
vt 0.399927 0.806540
vt 0.297604 0.796552
vt 0.266186 0.894443
vt 0.153219 0.871080
vt 0.163208 0.768757
vt 0.065316 0.737339
vt 0.088679 0.624372
vt 0.480688 0.329535
vt 0.444354 0.989842
vt 0.499607 0.297166
vt 0.515952 0.324403
vt 0.508049 0.355168
vt 0.498385 0.259694
vt 0.522381 0.989842
vt 0.534652 0.250184
vt 0.526950 0.281000
vt 0.560285 0.222822
vt 0.600566 0.989842
vt 0.592654 0.241742
vt 0.565417 0.258087
vt 0.630127 0.240521
vt 0.678746 0.989842
vt 0.639636 0.276787
vt 0.608820 0.269085
vt 0.666997 0.302420
vt 0.756927 0.989842
vt 0.648078 0.334789
vt 0.631733 0.307552
vt 0.649300 0.372262
vt 0.834952 0.989842
vt 0.613033 0.381771
vt 0.620735 0.350955
vt 0.587400 0.409133
vt 0.912898 0.989842
vt 0.555031 0.390213
vt 0.582268 0.373869
vt 0.517558 0.391435
vt 0.366376 0.989842
vt 0.538865 0.362870
vt 0.522883 0.303064
vt 0.543259 0.065841
vt 0.563618 0.070669
vt 0.546940 0.270813
vt 0.514024 0.094228
vt 0.586756 0.265018
vt 0.513443 0.134962
vt 0.619007 0.289075
vt 0.541864 0.164167
vt 0.624802 0.328891
vt 0.582585 0.164748
vt 0.600745 0.361142
vt 0.611819 0.136361
vt 0.560929 0.366937
vt 0.612401 0.095627
vt 0.583979 0.066422
vt 0.121405 0.068061
vt 0.043145 0.115706
vt 0.677051 0.102897
vt 0.671529 0.195773
vt 0.032744 0.206736
vt 0.011097 0.295765
vt 0.735850 0.660127
vt 0.068111 0.367487
vt 0.115756 0.445747
vt 0.735876 0.474393
vt 0.206786 0.456148
vt 0.295815 0.477795
vt 0.735887 0.288650
vt 0.367537 0.420782
vt 0.445797 0.373136
vt 0.735885 0.102898
vt 0.456198 0.282106
vt 0.477845 0.193078
vt 0.677007 0.660126
vt 0.420832 0.121355
vt 0.373186 0.043095
vt 0.677035 0.474392
vt 0.282156 0.032694
vt 0.677050 0.288649
vt 0.201144 0.182331
vt 0.121573 0.165848
vt 0.213129 0.101960
vt 0.200644 0.486910
vt 0.169930 0.231154
vt 0.102010 0.275763
vt 0.375036 0.522977
vt 0.182381 0.287748
vt 0.165898 0.367319
vt 0.472849 0.671797
vt 0.231204 0.318962
vt 0.275813 0.386883
vt 0.436783 0.846189
vt 0.287798 0.306511
vt 0.367369 0.322994
vt 0.287963 0.944002
vt 0.319012 0.257688
vt 0.386932 0.213079
vt 0.113570 0.907936
vt 0.306561 0.201094
vt 0.323044 0.121523
vt 0.015757 0.759116
vt 0.257738 0.169880
vt 0.051824 0.584723
vt 0.722682 0.102914
vt 0.722653 0.288649
vt 0.722638 0.474392
vt 0.722638 0.660144
vt 0.781516 0.102915
vt 0.781490 0.288649
vt 0.781479 0.474392
vt 0.781481 0.660144
vt 0.912898 0.963939
vt 0.912898 0.979866
vt 0.834952 0.963939
vt 0.834952 0.979866
vt 0.756927 0.963939
vt 0.756927 0.979866
vt 0.678746 0.963939
vt 0.678746 0.979866
vt 0.600566 0.963939
vt 0.600566 0.979866
vt 0.522381 0.963939
vt 0.522381 0.979866
vt 0.444354 0.963939
vt 0.444354 0.979866
vt 0.366376 0.963939
vt 0.366376 0.979866
vt 0.787007 0.753067
vt 0.112857 0.515464
vt 0.009943 0.666988
vt 0.044312 0.846902
vt 0.195835 0.949816
vt 0.375750 0.915448
vt 0.478663 0.763925
vt 0.444295 0.584010
vt 0.598179 0.028704
vt 0.562203 0.009892
vt 0.272801 0.200110
vt 0.649092 0.078997
vt 0.295836 0.233121
vt 0.649521 0.150561
vt 0.288782 0.272751
vt 0.599210 0.201461
vt 0.255772 0.295786
vt 0.527664 0.201884
vt 0.216141 0.288732
vt 0.476752 0.151592
vt 0.193106 0.255722
vt 0.476323 0.080027
vt 0.200160 0.216092
vt 0.526634 0.029128
vt 0.950171 0.983708
vt 0.329122 0.983708
vt 0.873303 0.983708
vt 0.795708 0.983708
vt 0.717657 0.983708
vt 0.639652 0.983708
vt 0.561665 0.983708
vt 0.483600 0.983708
vt 0.406013 0.983708
vt 0.232812 0.191428
vt 0.253949 0.191168
vt 0.273699 0.198705
vt 0.288829 0.213468
vt 0.297464 0.232762
vt 0.297724 0.253900
vt 0.290187 0.273649
vt 0.275424 0.288779
vt 0.256130 0.297414
vt 0.234993 0.297674
vt 0.215243 0.290137
vt 0.200113 0.275374
vt 0.191478 0.256080
vt 0.191218 0.234943
vt 0.198755 0.215193
vt 0.213518 0.200063
vt 0.787000 0.567268
vt 0.787005 0.660149
vt 0.292772 0.481096
vt 0.787012 0.381525
vt 0.787002 0.474392
vt 0.787025 0.195782
vt 0.787013 0.288649
vt 0.728162 0.753067
vt 0.787041 0.102907
vt 0.728159 0.567268
vt 0.728161 0.660149
vt 0.728173 0.381525
vt 0.728162 0.474392
vt 0.728190 0.195782
vt 0.728176 0.288649
vt 0.728207 0.102907
vt 0.193127 0.011047
vt 0.286214 0.009893
vt 0.671515 0.381516
vt 0.439824 0.108102
vt 0.671499 0.567259
vt 0.478999 0.286164
vt 0.730359 0.009975
vt 0.380790 0.439774
vt 0.730365 0.195774
vt 0.202728 0.478949
vt 0.730354 0.381517
vt 0.049118 0.380740
vt 0.730340 0.567260
vt 0.009943 0.202678
vt 0.671526 0.009974
vt 0.108152 0.049068
vt 0.722641 0.752960
vt 0.786956 0.009893
vt 0.677088 0.753037
vt 0.671565 0.753148
vt 0.722600 0.010004
vt 0.728123 0.009893
vt 0.677047 0.010081
vt 0.730410 0.753149
vt 0.487876 0.041264
vt 0.521926 0.018185
vt 0.233171 0.193056
vt 0.457507 0.116017
vt 0.465256 0.075620
vt 0.488903 0.190347
vt 0.465812 0.156304
vt 0.563641 0.220696
vt 0.523258 0.212952
vt 0.637968 0.189325
vt 0.603918 0.212403
vt 0.668337 0.114571
vt 0.660587 0.154968
vt 0.636940 0.040242
vt 0.660032 0.074285
vt 0.602585 0.017637
vt 0.528678 0.342880
vt 0.542510 0.357983
vt 0.595014 0.084214
vt 0.581390 0.367836
vt 0.607594 0.115994
vt 0.615848 0.347310
vt 0.594022 0.147367
vt 0.625701 0.308430
vt 0.562226 0.159920
vt 0.605175 0.273972
vt 0.530830 0.146375
vt 0.566295 0.264119
vt 0.518249 0.114594
vt 0.531837 0.284645
vt 0.531822 0.083221
vt 0.521984 0.323525
vn 0.055597 -0.996904 -0.055597
vn 0.019778 -0.998718 -0.046603
vn 0.175843 -0.871195 -0.458366
vn 0.448112 -0.773558 -0.448112
vn -0.000000 -0.998899 -0.046907
vn 0.000000 -0.893893 -0.448279
vn 0.000000 0.091417 -0.995813
vn 0.381091 0.091131 -0.920035
vn 0.704146 0.091417 -0.704146
vn -0.019778 -0.998718 -0.046603
vn -0.175843 -0.871195 -0.458366
vn -0.055597 -0.996904 -0.055597
vn -0.448111 -0.773558 -0.448111
vn -0.704146 0.091417 -0.704146
vn -0.381091 0.091131 -0.920035
vn -0.046603 -0.998718 -0.019778
vn -0.458366 -0.871195 -0.175843
vn -0.046907 -0.998899 -0.000000
vn -0.448280 -0.893893 -0.000000
vn -0.995813 0.091417 0.000000
vn -0.920035 0.091130 -0.381091
vn -0.046603 -0.998718 0.019778
vn -0.458366 -0.871195 0.175843
vn -0.055597 -0.996904 0.055597
vn -0.448111 -0.773558 0.448111
vn -0.704146 0.091417 0.704146
vn -0.920035 0.091130 0.381091
vn -0.019778 -0.998718 0.046603
vn -0.175843 -0.871195 0.458366
vn 0.000000 -0.998899 0.046907
vn -0.000000 -0.893893 0.448279
vn -0.000000 0.091417 0.995813
vn -0.381091 0.091131 0.920035
vn 0.019778 -0.998718 0.046603
vn 0.175843 -0.871195 0.458366
vn 0.055597 -0.996904 0.055597
vn 0.448112 -0.773558 0.448112
vn 0.704146 0.091417 0.704146
vn 0.381091 0.091131 0.920035
vn 0.046603 -0.998718 0.019778
vn 0.458366 -0.871194 0.175843
vn 0.046907 -0.998899 0.000000
vn 0.448280 -0.893893 -0.000000
vn 0.995813 0.091417 -0.000000
vn 0.920035 0.091131 0.381091
vn 0.046603 -0.998718 -0.019778
vn 0.458366 -0.871194 -0.175843
vn 0.920035 0.091131 -0.381091
vn -0.007275 -0.999947 -0.007275
vn 0.000000 -0.999980 -0.006275
vn -0.000000 -1.000000 0.000000
vn -0.006275 -0.999980 0.000000
vn -0.007275 -0.999947 0.007275
vn 0.000000 -0.999980 0.006275
vn 0.007275 -0.999947 0.007275
vn 0.006275 -0.999980 -0.000000
vn 0.007275 -0.999947 -0.007275
vn -0.000000 1.000000 -0.000000
vn -0.000000 1.000000 -0.000000
vn 0.000000 1.000000 0.000000
vn -0.000000 1.000000 -0.000000
vn 0.000000 0.999977 -0.006740
vn -0.002607 0.999974 -0.006786
vn -0.006866 0.999953 -0.006866
vn -0.006786 0.999974 -0.002607
vn -0.006740 0.999977 0.000000
vn -0.000000 1.000000 -0.000000
vn -0.000000 1.000000 -0.000000
vn -0.006786 0.999974 0.002607
vn -0.006866 0.999953 0.006866
vn -0.002607 0.999974 0.006786
vn -0.000000 0.999977 0.006740
vn -0.000000 1.000000 -0.000000
vn 0.000000 1.000000 -0.000000
vn 0.002607 0.999974 0.006786
vn 0.006866 0.999953 0.006866
vn 0.006786 0.999974 0.002607
vn 0.006741 0.999977 -0.000000
vn -0.000000 1.000000 -0.000000
vn 0.006786 0.999974 -0.002607
vn 0.006866 0.999953 -0.006866
vn 0.002607 0.999974 -0.006786
vn -0.000000 0.994378 -0.105890
vn -0.040292 0.994442 -0.097273
vn -0.010625 0.999615 -0.025651
vn 0.000000 0.999616 -0.027700
vn -0.074876 0.994378 -0.074876
vn -0.019587 0.999616 -0.019587
vn -0.042637 0.998181 -0.042637
vn -0.023344 0.998138 -0.056357
vn 0.000000 0.998181 -0.060297
vn -0.097273 0.994442 -0.040292
vn -0.025651 0.999615 -0.010625
vn -0.105890 0.994378 0.000000
vn -0.027700 0.999616 0.000000
vn -0.060297 0.998181 -0.000000
vn -0.056357 0.998138 -0.023344
vn -0.097273 0.994442 0.040292
vn -0.025651 0.999615 0.010625
vn -0.074876 0.994378 0.074876
vn -0.019587 0.999616 0.019587
vn -0.042637 0.998181 0.042637
vn -0.056357 0.998138 0.023344
vn -0.040292 0.994442 0.097273
vn -0.010625 0.999615 0.025651
vn 0.000000 0.994378 0.105890
vn -0.000000 0.999616 0.027700
vn -0.000000 0.998181 0.060297
vn -0.023344 0.998138 0.056357
vn 0.040292 0.994442 0.097273
vn 0.010625 0.999614 0.025651
vn 0.074876 0.994378 0.074876
vn 0.019587 0.999616 0.019587
vn 0.042637 0.998181 0.042637
vn 0.023344 0.998138 0.056357
vn 0.097273 0.994442 0.040292
vn 0.025651 0.999615 0.010625
vn 0.105890 0.994378 -0.000000
vn 0.027700 0.999616 -0.000000
vn 0.060297 0.998181 0.000000
vn 0.056357 0.998138 0.023344
vn 0.097273 0.994442 -0.040292
vn 0.025651 0.999615 -0.010625
vn 0.074876 0.994378 -0.074876
vn 0.019587 0.999616 -0.019587
vn 0.042637 0.998181 -0.042637
vn 0.056357 0.998138 -0.023344
vn 0.040292 0.994442 -0.097273
vn 0.010625 0.999615 -0.025651
vn 0.023344 0.998138 -0.056357
vn -0.332941 0.493021 -0.803791
vn 0.000000 0.496522 -0.868024
vn -0.613786 0.496522 -0.613786
vn -0.707107 0.000000 -0.707107
vn -0.382684 -0.000000 -0.923879
vn -0.000000 -0.000000 -1.000000
vn -0.803791 0.493021 -0.332941
vn -0.868024 0.496522 -0.000000
vn -1.000000 0.000000 0.000000
vn -0.923879 0.000000 -0.382684
vn -0.803791 0.493021 0.332941
vn -0.613786 0.496522 0.613786
vn -0.707107 0.000000 0.707107
vn -0.923879 0.000000 0.382684
vn -0.332941 0.493021 0.803791
vn -0.000000 0.496522 0.868024
vn -0.000000 -0.000000 1.000000
vn -0.382684 -0.000000 0.923879
vn 0.332941 0.493021 0.803791
vn 0.613786 0.496522 0.613786
vn 0.707107 0.000000 0.707107
vn 0.382684 0.000000 0.923879
vn 0.803791 0.493021 0.332941
vn 0.868024 0.496522 0.000000
vn 1.000000 0.000000 0.000000
vn 0.923879 0.000000 0.382684
vn 0.803791 0.493021 -0.332941
vn 0.613786 0.496522 -0.613786
vn 0.707107 -0.000000 -0.707107
vn 0.923879 0.000000 -0.382684
vn 0.332941 0.493021 -0.803791
vn 0.382684 -0.000000 -0.923879
vn -0.000000 -0.999079 -0.042918
vn -0.016319 -0.999090 -0.039397
vn -0.140204 -0.930469 -0.338483
vn -0.000000 -0.929869 -0.367891
vn -0.030347 -0.999079 -0.030347
vn -0.260138 -0.929869 -0.260138
vn -0.707076 0.009288 -0.707076
vn -0.382667 0.009257 -0.923840
vn -0.000000 0.009288 -0.999957
vn -0.039397 -0.999090 -0.016319
vn -0.338482 -0.930469 -0.140204
vn -0.042918 -0.999079 -0.000000
vn -0.367890 -0.929869 0.000000
vn -0.999957 0.009287 0.000000
vn -0.923840 0.009256 -0.382667
vn -0.039397 -0.999090 0.016319
vn -0.338482 -0.930469 0.140204
vn -0.030347 -0.999079 0.030347
vn -0.260138 -0.929869 0.260138
vn -0.707076 0.009288 0.707076
vn -0.923840 0.009257 0.382667
vn -0.016319 -0.999090 0.039397
vn -0.140204 -0.930469 0.338483
vn -0.000000 -0.999079 0.042918
vn -0.000000 -0.929869 0.367891
vn -0.000000 0.009288 0.999957
vn -0.382667 0.009257 0.923840
vn 0.016319 -0.999090 0.039397
vn 0.140204 -0.930469 0.338483
vn 0.030347 -0.999079 0.030347
vn 0.260138 -0.929869 0.260138
vn 0.707076 0.009287 0.707076
vn 0.382667 0.009257 0.923840
vn 0.039397 -0.999090 0.016319
vn 0.338482 -0.930469 0.140204
vn 0.042917 -0.999079 0.000000
vn 0.367890 -0.929869 0.000000
vn 0.999957 0.009288 -0.000000
vn 0.923840 0.009257 0.382667
vn 0.039397 -0.999090 -0.016319
vn 0.338482 -0.930469 -0.140204
vn 0.030347 -0.999079 -0.030347
vn 0.260137 -0.929869 -0.260138
vn 0.707076 0.009287 -0.707076
vn 0.923840 0.009257 -0.382667
vn 0.016319 -0.999090 -0.039397
vn 0.140204 -0.930469 -0.338483
vn 0.382666 0.009256 -0.923840
vn -0.000000 -0.999882 -0.015356
vn -0.005947 -0.999879 -0.014356
vn -0.003881 -0.999949 -0.009369
vn -0.000000 -0.999949 -0.010125
vn -0.010858 -0.999882 -0.010858
vn -0.007159 -0.999949 -0.007159
vn -0.024480 0.997808 -0.061474
vn -0.054649 0.997009 -0.054649
vn 0.000000 0.998150 -0.060797
vn -0.014356 -0.999879 -0.005947
vn -0.009369 -0.999949 -0.003881
vn -0.015356 -0.999882 -0.000000
vn -0.010125 -0.999949 0.000000
vn -0.061475 0.997808 -0.024480
vn -0.060798 0.998150 0.000000
vn -0.014356 -0.999879 0.005947
vn -0.009369 -0.999949 0.003881
vn -0.010858 -0.999882 0.010858
vn -0.007159 -0.999949 0.007159
vn -0.061475 0.997808 0.024480
vn -0.054649 0.997009 0.054649
vn -0.005947 -0.999879 0.014356
vn -0.003881 -0.999949 0.009369
vn -0.000000 -0.999882 0.015356
vn -0.000000 -0.999949 0.010125
vn -0.024480 0.997808 0.061474
vn -0.000000 0.998150 0.060798
vn 0.005946 -0.999879 0.014356
vn 0.003880 -0.999949 0.009369
vn 0.010858 -0.999882 0.010858
vn 0.007159 -0.999949 0.007159
vn 0.024480 0.997808 0.061475
vn 0.054650 0.997009 0.054650
vn 0.014356 -0.999879 0.005947
vn 0.009369 -0.999949 0.003881
vn 0.015356 -0.999882 -0.000000
vn 0.010124 -0.999949 -0.000000
vn 0.061475 0.997808 0.024480
vn 0.060798 0.998150 -0.000000
vn 0.014356 -0.999879 -0.005946
vn 0.009369 -0.999949 -0.003881
vn 0.010858 -0.999882 -0.010858
vn 0.007159 -0.999949 -0.007159
vn 0.061475 0.997808 -0.024481
vn 0.054649 0.997009 -0.054649
vn 0.005946 -0.999879 -0.014356
vn 0.003880 -0.999949 -0.009369
vn 0.024480 0.997809 -0.061474
vn 1.000000 -0.000000 0.000000
vn 0.923880 -0.000000 -0.382683
vn 0.920035 -0.091131 -0.381091
vn 0.995813 -0.091418 0.000000
vn 0.707107 0.000000 -0.707107
vn 0.704146 -0.091417 -0.704146
vn 0.707107 -0.000000 0.707107
vn 0.923880 -0.000000 0.382683
vn 0.920035 -0.091131 0.381091
vn 0.704146 -0.091417 0.704146
vn -0.000000 -0.000000 1.000000
vn 0.382683 -0.000000 0.923880
vn 0.381091 -0.091131 0.920035
vn -0.000000 -0.091417 0.995813
vn -0.707107 0.000000 0.707107
vn -0.382683 -0.000000 0.923880
vn -0.381091 -0.091131 0.920035
vn -0.704146 -0.091417 0.704146
vn -1.000000 -0.000000 0.000000
vn -0.923880 -0.000000 0.382683
vn -0.920035 -0.091130 0.381091
vn -0.995813 -0.091417 0.000000
vn -0.707107 0.000000 -0.707107
vn -0.923880 0.000000 -0.382683
vn -0.920035 -0.091130 -0.381091
vn -0.704146 -0.091417 -0.704146
vn 0.000000 0.000000 -1.000000
vn -0.382683 0.000000 -0.923880
vn -0.381091 -0.091131 -0.920035
vn -0.000000 -0.091417 -0.995813
vn 0.382683 0.000000 -0.923880
vn 0.381091 -0.091131 -0.920035
vn -0.000000 -0.009287 -0.999957
vn -0.382667 -0.009255 -0.923840
vn -0.329399 0.509013 -0.795237
vn -0.000000 0.508467 -0.861081
vn -0.707076 -0.009287 -0.707076
vn -0.608876 0.508470 -0.608875
vn 0.707076 -0.009287 -0.707076
vn 0.382666 -0.009256 -0.923840
vn 0.329399 0.509010 -0.795239
vn 0.608877 0.508465 -0.608877
vn 0.999957 -0.009287 -0.000000
vn 0.923840 -0.009256 -0.382667
vn 0.795241 0.509007 -0.329400
vn 0.861085 0.508462 0.000000
vn 0.707076 -0.009287 0.707076
vn 0.923840 -0.009256 0.382667
vn 0.795241 0.509007 0.329400
vn 0.608877 0.508465 0.608878
vn -0.000000 -0.009286 0.999957
vn 0.382666 -0.009256 0.923840
vn 0.329399 0.509009 0.795240
vn -0.000000 0.508467 0.861082
vn -0.707076 -0.009287 0.707076
vn -0.382667 -0.009255 0.923840
vn -0.329399 0.509011 0.795238
vn -0.608877 0.508467 0.608877
vn -0.999957 -0.009287 0.000000
vn -0.923840 -0.009256 0.382667
vn -0.795239 0.509010 0.329399
vn -0.861082 0.508466 0.000000
vn -0.923840 -0.009256 -0.382667
vn -0.795239 0.509011 -0.329398
vn 0.707107 -0.000000 -0.707107
vn 0.382684 -0.000000 -0.923879
vn 0.377214 -0.168472 -0.910674
vn 0.696766 -0.170398 -0.696765
vn -0.000000 -0.000000 -1.000000
vn -0.000000 -0.170397 -0.985376
vn -0.000000 -0.997587 -0.069431
vn 0.026653 -0.997572 -0.064346
vn 0.049095 -0.997587 -0.049095
vn 1.000000 0.000000 0.000000
vn 0.923879 -0.000000 -0.382684
vn 0.910674 -0.168472 -0.377213
vn 0.985376 -0.170397 -0.000000
vn 0.064346 -0.997572 -0.026653
vn 0.069430 -0.997587 -0.000000
vn 0.707107 -0.000000 0.707107
vn 0.923880 -0.000000 0.382684
vn 0.910674 -0.168472 0.377213
vn 0.696766 -0.170398 0.696765
vn 0.064345 -0.997572 0.026653
vn 0.049094 -0.997587 0.049095
vn -0.000000 0.000000 1.000000
vn 0.382684 -0.000000 0.923879
vn 0.377214 -0.168472 0.910674
vn -0.000000 -0.170397 0.985376
vn 0.026653 -0.997572 0.064346
vn -0.000000 -0.997587 0.069431
vn -0.707107 -0.000000 0.707107
vn -0.382684 -0.000000 0.923879
vn -0.377214 -0.168472 0.910674
vn -0.696766 -0.170398 0.696765
vn -0.026653 -0.997572 0.064346
vn -0.049095 -0.997587 0.049095
vn -1.000000 0.000000 0.000000
vn -0.923880 -0.000000 0.382684
vn -0.910674 -0.168472 0.377213
vn -0.985376 -0.170397 0.000000
vn -0.064346 -0.997572 0.026653
vn -0.069430 -0.997587 0.000000
vn -0.707107 -0.000000 -0.707107
vn -0.923880 -0.000000 -0.382684
vn -0.910674 -0.168472 -0.377213
vn -0.696766 -0.170397 -0.696766
vn -0.064346 -0.997572 -0.026653
vn -0.049095 -0.997587 -0.049095
vn -0.382684 -0.000000 -0.923879
vn -0.377214 -0.168472 -0.910674
vn -0.026653 -0.997572 -0.064346
vn 0.677607 0.679758 -0.280674
vn 0.734461 0.678651 0.000000
vn 0.519343 0.678650 -0.519343
vn 0.677606 0.679759 0.280674
vn 0.519342 0.678651 0.519342
vn 0.280674 0.679759 0.677606
vn -0.000000 0.678651 0.734460
vn -0.280674 0.679759 0.677606
vn -0.519343 0.678650 0.519343
vn -0.677607 0.679758 0.280674
vn -0.734461 0.678651 0.000000
vn -0.677606 0.679758 -0.280674
vn -0.519343 0.678651 -0.519343
vn -0.280674 0.679759 -0.677606
vn -0.000000 0.678651 -0.734461
vn 0.280674 0.679759 -0.677606
s 1
g MS_Table Table_Cloth
usemtl lambert1SG
f 100/100/100 282/307/101 398/235/102 285/311/103
f 282/307/101 101/103/104 283/309/105 398/235/102
f 398/235/102 283/309/105 213/234/106 284/310/107
f 285/311/103 398/235/102 284/310/107 206/226/108
f 101/103/104 286/313/109 399/236/110 283/309/105
f 286/313/109 102/105/111 287/315/112 399/236/110
f 399/236/110 287/315/112 212/233/113 288/316/114
f 283/309/105 399/236/110 288/316/114 213/234/106
f 102/105/111 289/317/115 400/237/116 287/315/112
f 289/317/115 103/107/117 290/319/118 400/237/116
f 400/237/116 290/319/118 211/232/119 291/320/120
f 287/315/112 400/237/116 291/320/120 212/233/113
f 103/107/117 292/321/121 401/238/122 290/319/118
f 292/321/121 104/109/123 293/323/124 401/238/122
f 401/238/122 293/323/124 210/231/125 294/324/126
f 290/319/118 401/238/122 294/324/126 211/232/119
f 104/109/123 295/325/127 402/239/128 293/323/124
f 295/325/127 105/111/129 296/327/130 402/239/128
f 402/239/128 296/327/130 209/230/131 297/328/132
f 293/323/124 402/239/128 297/328/132 210/231/125
f 105/111/129 298/329/133 403/240/134 296/327/130
f 298/329/133 106/113/135 299/331/136 403/240/134
f 403/240/134 299/331/136 208/229/137 300/332/138
f 296/327/130 403/240/134 300/332/138 209/230/131
f 106/113/135 301/333/139 404/241/140 299/331/136
f 301/333/139 107/115/141 302/335/142 404/241/140
f 404/241/140 302/335/142 207/228/143 303/336/144
f 299/331/136 404/241/140 303/336/144 208/229/137
f 107/115/141 304/337/145 405/242/146 302/335/142
f 304/337/145 100/101/100 285/312/103 405/242/146
f 405/242/146 285/312/103 206/227/108 305/339/147
f 302/335/142 405/242/146 305/339/147 207/228/143
f 102/106/111 286/314/109 406/243/148 289/318/115
f 286/314/109 101/104/104 306/340/149 406/243/148
f 406/243/148 306/340/149 116/134/150 307/341/151
f 289/318/115 406/243/148 307/341/151 103/108/117
f 104/110/123 292/322/121 407/244/152 295/326/127
f 292/322/121 103/108/117 307/341/151 407/244/152
f 407/244/152 307/341/151 116/134/150 308/342/153
f 295/326/127 407/244/152 308/342/153 105/112/129
f 106/114/135 298/330/133 408/245/154 301/334/139
f 298/330/133 105/112/129 308/342/153 408/245/154
f 408/245/154 308/342/153 116/134/150 309/343/155
f 301/334/139 408/245/154 309/343/155 107/116/141
f 100/102/100 304/338/145 409/246/156 282/308/101
f 304/338/145 107/116/141 309/343/155 409/246/156
f 409/246/156 309/343/155 116/134/150 306/340/149
f 282/308/101 409/246/156 306/340/149 101/104/104
f 134/152/157 310/344/158 410/247/159 313/347/160
f 310/344/158 133/151/161 311/345/162 410/247/159
f 410/247/159 311/345/162 135/153/163 312/346/164
f 313/347/160 410/247/159 312/346/164 136/154/165
f 134/152/157 313/347/160 411/248/166 316/350/167
f 313/347/160 136/154/165 314/348/168 411/248/166
f 411/248/166 314/348/168 137/155/169 315/349/170
f 316/350/167 411/248/166 315/349/170 138/156/171
f 134/152/157 316/350/167 412/249/172 319/353/173
f 316/350/167 138/156/171 317/351/174 412/249/172
f 412/249/172 317/351/174 139/157/175 318/352/176
f 319/353/173 412/249/172 318/352/176 140/158/177
f 134/152/157 319/353/173 413/250/178 310/344/158
f 319/353/173 140/158/177 320/354/179 413/250/178
f 413/250/178 320/354/179 141/159/180 321/355/181
f 310/344/158 413/250/178 321/355/181 133/151/161
f 109/120/182 322/356/183 414/251/184 325/360/185
f 322/356/183 110/122/186 323/358/187 414/251/184
f 414/251/184 323/358/187 118/136/188 324/359/189
f 325/360/185 414/251/184 324/359/189 117/135/190
f 110/122/186 326/361/191 415/252/192 323/358/187
f 326/361/191 111/124/193 327/363/194 415/252/192
f 415/252/192 327/363/194 119/137/195 328/364/196
f 323/358/187 415/252/192 328/364/196 118/136/188
f 111/124/193 329/365/197 416/253/198 327/363/194
f 329/365/197 112/126/199 330/367/200 416/253/198
f 416/253/198 330/367/200 120/138/201 331/368/202
f 327/363/194 416/253/198 331/368/202 119/137/195
f 112/126/199 332/369/203 417/254/204 330/367/200
f 332/369/203 113/128/205 333/371/206 417/254/204
f 417/254/204 333/371/206 121/139/207 334/372/208
f 330/367/200 417/254/204 334/372/208 120/138/201
f 113/128/205 335/373/209 418/255/210 333/371/206
f 335/373/209 114/130/211 336/375/212 418/255/210
f 418/255/210 336/375/212 122/140/213 337/376/214
f 333/371/206 418/255/210 337/376/214 121/139/207
f 114/130/211 338/377/215 419/256/216 336/375/212
f 338/377/215 115/132/217 339/379/218 419/256/216
f 419/256/216 339/379/218 123/141/219 340/380/220
f 336/375/212 419/256/216 340/380/220 122/140/213
f 115/132/217 341/381/221 420/257/222 339/379/218
f 341/381/221 108/117/223 342/383/224 420/257/222
f 420/257/222 342/383/224 124/142/225 343/384/226
f 339/379/218 420/257/222 343/384/226 123/141/219
f 108/117/223 344/385/227 421/258/228 342/383/224
f 344/385/227 109/120/182 325/360/185 421/258/228
f 421/258/228 325/360/185 117/135/190 345/387/229
f 342/383/224 421/258/228 345/387/229 124/142/225
f 117/135/190 324/359/189 422/596/230 348/581/231
f 324/359/189 118/136/188 346/388/232 422/596/230
f 422/259/230 346/595/232 197/216/233 347/389/234
f 348/390/231 422/259/230 347/389/234 190/209/235
f 118/136/188 328/364/196 423/594/236 346/388/232
f 328/364/196 119/137/195 349/391/237 423/594/236
f 423/260/236 349/593/237 196/215/238 350/392/239
f 346/595/232 423/260/236 350/392/239 197/216/233
f 119/137/195 331/368/202 424/592/240 349/391/237
f 331/368/202 120/138/201 351/393/241 424/592/240
f 424/261/240 351/591/241 195/214/242 352/394/243
f 349/593/237 424/261/240 352/394/243 196/215/238
f 120/138/201 334/372/208 425/590/244 351/393/241
f 334/372/208 121/139/207 353/395/245 425/590/244
f 425/262/244 353/589/245 194/213/246 354/396/247
f 351/591/241 425/262/244 354/396/247 195/214/242
f 121/139/207 337/376/214 426/588/248 353/395/245
f 337/376/214 122/140/213 355/397/249 426/588/248
f 426/263/248 355/587/249 193/212/250 356/398/251
f 353/589/245 426/263/248 356/398/251 194/213/246
f 122/140/213 340/380/220 427/586/252 355/397/249
f 340/380/220 123/141/219 357/399/253 427/586/252
f 427/264/252 357/585/253 192/211/254 358/400/255
f 355/587/249 427/264/252 358/400/255 193/212/250
f 123/141/219 343/384/226 428/584/256 357/399/253
f 343/384/226 124/142/225 359/401/257 428/584/256
f 428/265/256 359/583/257 191/210/258 360/402/259
f 357/585/253 428/265/256 360/402/259 192/211/254
f 124/142/225 345/387/229 429/582/260 359/401/257
f 345/387/229 117/135/190 348/581/231 429/582/260
f 429/266/260 348/390/231 190/209/235 361/403/261
f 359/583/257 429/266/260 361/403/261 191/210/258
f 142/160/262 362/404/263 430/556/264 365/541/265
f 362/404/263 143/161/266 363/405/267 430/556/264
f 430/267/264 363/555/267 174/563/268 364/406/269
f 365/407/265 430/267/264 364/406/269 175/194/270
f 143/161/266 366/408/271 431/554/272 363/405/267
f 366/408/271 146/164/273 367/409/274 431/554/272
f 431/268/272 367/553/274 181/200/275 368/410/276
f 363/564/267 431/268/272 368/410/276 174/193/268
f 146/164/273 369/411/277 432/552/278 367/409/274
f 369/411/277 148/166/279 370/412/280 432/552/278
f 432/269/278 370/551/280 180/199/281 371/413/282
f 367/553/274 432/269/278 371/413/282 181/200/275
f 148/166/279 372/414/283 433/550/284 370/412/280
f 372/414/283 150/168/285 373/415/286 433/550/284
f 433/270/284 373/549/286 179/198/287 374/416/288
f 370/551/280 433/270/284 374/416/288 180/199/281
f 150/168/285 375/417/289 434/548/290 373/415/286
f 375/417/289 152/170/291 376/418/292 434/548/290
f 434/271/290 376/547/292 178/197/293 377/419/294
f 373/549/286 434/271/290 377/419/294 179/198/287
f 152/170/291 378/420/295 435/546/296 376/418/292
f 378/420/295 154/172/297 379/421/298 435/546/296
f 435/272/296 379/545/298 177/196/299 380/422/300
f 376/560/292 435/272/296 380/422/300 178/559/293
f 154/172/297 381/423/301 436/544/302 379/421/298
f 381/423/301 156/174/303 382/424/304 436/544/302
f 436/273/302 382/543/304 176/195/305 383/425/306
f 379/545/298 436/273/302 383/425/306 177/196/299
f 156/174/303 384/426/307 437/542/308 382/424/304
f 384/426/307 142/160/262 365/541/265 437/542/308
f 437/274/308 365/407/265 175/194/270 385/427/309
f 382/543/304 437/274/308 385/427/309 176/195/305
f 125/143/310 386/428/311 438/275/312 388/430/313
f 386/428/311 126/144/314 387/429/315 438/275/312
f 438/275/312 387/429/315 143/161/266 362/404/263
f 388/430/313 438/275/312 362/404/263 142/160/262
f 135/153/163 311/345/162 389/431/316 144/162/317
f 311/345/162 133/151/161 145/163/318 389/431/316
f 126/144/314 390/432/319 439/276/320 387/429/315
f 390/432/319 127/145/321 391/433/322 439/276/320
f 439/276/320 391/433/322 146/164/273 366/408/271
f 387/429/315 439/276/320 366/408/271 143/161/266
f 136/154/165 312/346/164 392/434/323 147/165/324
f 312/346/164 135/153/163 144/162/317 392/434/323
f 127/145/321 393/435/325 440/277/326 391/433/322
f 393/435/325 128/146/327 394/436/328 440/277/326
f 440/277/326 394/436/328 148/166/279 369/411/277
f 391/433/322 440/277/326 369/411/277 146/164/273
f 137/155/169 314/348/168 395/437/329 149/167/330
f 314/348/168 136/154/165 147/165/324 395/437/329
f 128/146/327 396/438/331 441/278/332 394/436/328
f 396/438/331 129/147/333 397/439/334 441/278/332
f 441/278/332 397/439/334 150/168/285 372/414/283
f 394/436/328 441/278/332 372/414/283 148/166/279
f 138/156/171 315/349/170 214/440/335 151/169/336
f 315/349/170 137/155/169 149/167/330 214/440/335
f 129/147/333 215/441/337 442/279/338 397/439/334
f 215/441/337 130/148/339 216/442/340 442/279/338
f 442/279/338 216/442/340 152/170/291 375/417/289
f 397/439/334 442/279/338 375/417/289 150/168/285
f 139/157/175 317/351/174 217/443/341 153/171/342
f 317/351/174 138/156/171 151/169/336 217/443/341
f 130/148/339 218/444/343 443/280/344 216/442/340
f 218/444/343 131/149/345 219/445/346 443/280/344
f 443/280/344 219/445/346 154/172/297 378/420/295
f 216/442/340 443/280/344 378/420/295 152/170/291
f 140/158/177 318/352/176 220/446/347 155/173/348
f 318/352/176 139/157/175 153/171/342 220/446/347
f 131/149/345 221/447/349 444/281/350 219/445/346
f 221/447/349 132/150/351 222/448/352 444/281/350
f 444/281/350 222/448/352 156/174/303 381/423/301
f 219/445/346 444/281/350 381/423/301 154/172/297
f 141/159/180 320/354/179 223/449/353 157/175/354
f 320/354/179 140/158/177 155/173/348 223/449/353
f 132/150/351 224/450/355 445/282/356 222/448/352
f 224/450/355 125/143/310 388/430/313 445/282/356
f 445/282/356 388/430/313 142/160/262 384/426/307
f 222/448/352 445/282/356 384/426/307 156/174/303
f 133/151/161 321/355/181 225/451/357 145/163/318
f 321/355/181 141/159/180 157/175/354 225/451/357
f 159/178/358 234/460/359 235/461/360 199/219/361
f 234/460/359 158/176/362 198/217/363 235/461/360
f 160/179/364 236/462/365 237/463/366 200/220/367
f 236/462/365 159/178/358 199/219/361 237/463/366
f 161/180/368 238/464/369 239/465/370 201/221/371
f 238/464/369 160/179/364 200/220/367 239/465/370
f 162/181/372 240/466/373 241/467/374 202/222/375
f 240/466/373 161/180/368 201/221/371 241/467/374
f 163/182/376 242/468/377 243/469/378 203/223/379
f 242/468/377 162/181/372 202/222/375 243/469/378
f 164/183/380 244/470/381 245/471/382 204/224/383
f 244/470/381 163/182/376 203/223/379 245/471/382
f 165/184/384 246/472/385 247/473/386 205/225/387
f 246/472/385 164/183/380 204/224/383 247/473/386
f 158/177/362 248/474/388 249/475/389 198/218/363
f 248/474/388 165/184/384 205/225/387 249/475/389
f 167/186/390 226/452/391 446/540/392 251/538/393
f 226/452/391 166/561/394 250/562/395 446/540/392
f 446/283/392 250/527/395 144/162/317 389/431/316
f 251/477/393 446/283/392 389/431/316 145/163/318
f 168/187/396 227/453/397 447/539/398 252/536/399
f 227/453/397 167/186/390 251/538/393 447/539/398
f 447/284/398 251/477/393 145/163/318 225/451/357
f 252/478/399 447/284/398 225/451/357 157/175/354
f 169/188/400 228/454/401 448/537/402 253/534/403
f 228/454/401 168/187/396 252/536/399 448/537/402
f 448/285/402 252/478/399 157/175/354 223/449/353
f 253/479/403 448/285/402 223/449/353 155/173/348
f 170/557/404 229/455/405 449/535/406 254/532/407
f 229/455/405 169/188/400 253/534/403 449/535/406
f 449/286/406 253/479/403 155/173/348 220/446/347
f 254/480/407 449/286/406 220/446/347 153/171/342
f 171/190/408 230/456/409 450/533/410 255/530/411
f 230/456/409 170/189/404 254/558/407 450/533/410
f 450/287/410 254/480/407 153/171/342 217/443/341
f 255/481/411 450/287/410 217/443/341 151/169/336
f 172/191/412 231/457/413 451/531/414 256/528/415
f 231/457/413 171/190/408 255/530/411 451/531/414
f 451/288/414 255/481/411 151/169/336 214/440/335
f 256/482/415 451/288/414 214/440/335 149/167/330
f 173/192/416 232/458/417 452/529/418 257/525/419
f 232/458/417 172/191/412 256/528/415 452/529/418
f 452/289/418 256/482/415 149/167/330 395/437/329
f 257/483/419 452/289/418 395/437/329 147/165/324
f 166/185/394 233/459/420 453/526/421 250/476/395
f 233/459/420 173/192/416 257/525/419 453/526/421
f 453/290/421 257/483/419 147/165/324 392/434/323
f 250/527/395 453/290/421 392/434/323 144/162/317
f 175/194/270 364/406/269 226/452/391 167/186/390
f 364/406/269 174/563/268 166/561/394 226/452/391
f 176/195/305 385/427/309 227/453/397 168/187/396
f 385/427/309 175/194/270 167/186/390 227/453/397
f 177/196/299 383/425/306 228/454/401 169/188/400
f 383/425/306 176/195/305 168/187/396 228/454/401
f 178/559/293 380/422/300 229/455/405 170/557/404
f 380/422/300 177/196/299 169/188/400 229/455/405
f 179/198/287 377/419/294 230/456/409 171/190/408
f 377/419/294 178/197/293 170/189/404 230/456/409
f 180/199/281 374/416/288 231/457/413 172/191/412
f 374/416/288 179/198/287 171/190/408 231/457/413
f 181/200/275 371/413/282 232/458/417 173/192/416
f 371/413/282 180/199/281 172/191/412 232/458/417
f 174/193/268 368/410/276 233/459/420 166/185/394
f 368/410/276 181/200/275 173/192/416 233/459/420
f 183/202/422 258/484/423 454/580/424 260/578/425
f 258/484/423 182/201/426 259/485/427 454/580/424
f 454/291/424 259/567/427 470/509/428 471/510/429
f 260/486/425 454/291/424 471/510/429 472/511/430
f 184/203/431 261/487/432 455/579/433 262/576/434
f 261/487/432 183/202/422 260/578/425 455/579/433
f 455/292/433 260/486/425 472/511/430 473/512/435
f 262/488/434 455/292/433 473/512/435 474/513/436
f 185/204/437 263/489/438 456/577/439 264/574/440
f 263/489/438 184/203/431 262/576/434 456/577/439
f 456/293/439 262/488/434 474/513/436 475/514/441
f 264/490/440 456/293/439 475/514/441 476/515/442
f 186/205/443 265/491/444 457/575/445 266/572/446
f 265/491/444 185/204/437 264/574/440 457/575/445
f 457/294/445 264/490/440 476/515/442 477/516/447
f 266/492/446 457/294/445 477/516/447 478/517/448
f 187/206/449 267/493/450 458/573/451 268/570/452
f 267/493/450 186/205/443 266/572/446 458/573/451
f 458/295/451 266/492/446 478/517/448 479/518/453
f 268/494/452 458/295/451 479/518/453 480/519/454
f 188/207/455 269/495/456 459/571/457 270/568/458
f 269/495/456 187/206/449 268/570/452 459/571/457
f 459/296/457 268/494/452 480/519/454 481/520/459
f 270/496/458 459/296/457 481/520/459 482/521/460
f 189/208/461 271/497/462 460/569/463 272/565/464
f 271/497/462 188/207/455 270/568/458 460/569/463
f 460/297/463 270/496/458 482/521/460 483/522/465
f 272/498/464 460/297/463 483/522/465 484/523/466
f 182/201/426 273/499/467 461/566/468 259/485/427
f 273/499/467 189/208/461 272/565/464 461/566/468
f 461/298/468 272/498/464 484/523/466 485/524/469
f 259/567/427 461/298/468 485/524/469 470/509/428
f 191/210/258 361/403/261 258/484/423 183/202/422
f 361/403/261 190/209/235 182/201/426 258/484/423
f 192/211/254 360/402/259 261/487/432 184/203/431
f 360/402/259 191/210/258 183/202/422 261/487/432
f 193/212/250 358/400/255 263/489/438 185/204/437
f 358/400/255 192/211/254 184/203/431 263/489/438
f 194/213/246 356/398/251 265/491/444 186/205/443
f 356/398/251 193/212/250 185/204/437 265/491/444
f 195/214/242 354/396/247 267/493/450 187/206/449
f 354/396/247 194/213/246 186/205/443 267/493/450
f 196/215/238 352/394/243 269/495/456 188/207/455
f 352/394/243 195/214/242 187/206/449 269/495/456
f 197/216/233 350/392/239 271/497/462 189/208/461
f 350/392/239 196/215/238 188/207/455 271/497/462
f 190/209/235 347/389/234 273/499/467 182/201/426
f 347/389/234 197/216/233 189/208/461 273/499/467
f 199/219/361 235/461/360 462/299/470 275/502/471
f 235/461/360 198/217/363 274/500/472 462/299/470
f 462/299/470 274/500/472 108/118/223 341/382/221
f 275/502/471 462/299/470 341/382/221 115/133/217
f 200/220/367 237/463/366 463/300/473 276/503/474
f 237/463/366 199/219/361 275/502/471 463/300/473
f 463/300/473 275/502/471 115/133/217 338/378/215
f 276/503/474 463/300/473 338/378/215 114/131/211
f 201/221/371 239/465/370 464/301/475 277/504/476
f 239/465/370 200/220/367 276/503/474 464/301/475
f 464/301/475 276/503/474 114/131/211 335/374/209
f 277/504/476 464/301/475 335/374/209 113/129/205
f 202/222/375 241/467/374 465/302/477 278/505/478
f 241/467/374 201/221/371 277/504/476 465/302/477
f 465/302/477 277/504/476 113/129/205 332/370/203
f 278/505/478 465/302/477 332/370/203 112/127/199
f 203/223/379 243/469/378 466/303/479 279/506/480
f 243/469/378 202/222/375 278/505/478 466/303/479
f 466/303/479 278/505/478 112/127/199 329/366/197
f 279/506/480 466/303/479 329/366/197 111/125/193
f 204/224/383 245/471/382 467/304/481 280/507/482
f 245/471/382 203/223/379 279/506/480 467/304/481
f 467/304/481 279/506/480 111/125/193 326/362/191
f 280/507/482 467/304/481 326/362/191 110/123/186
f 205/225/387 247/473/386 468/305/483 281/508/484
f 247/473/386 204/224/383 280/507/482 468/305/483
f 468/305/483 280/507/482 110/123/186 322/357/183
f 281/508/484 468/305/483 322/357/183 109/121/182
f 198/218/363 249/475/389 469/306/485 274/501/472
f 249/475/389 205/225/387 281/508/484 469/306/485
f 469/306/485 281/508/484 109/121/182 344/386/227
f 274/501/472 469/306/485 344/386/227 108/119/223
f 207/228/143 305/339/147 234/460/359 159/178/358
f 305/339/147 206/227/108 158/176/362 234/460/359
f 208/229/137 303/336/144 236/462/365 160/179/364
f 303/336/144 207/228/143 159/178/358 236/462/365
f 209/230/131 300/332/138 238/464/369 161/180/368
f 300/332/138 208/229/137 160/179/364 238/464/369
f 210/231/125 297/328/132 240/466/373 162/181/372
f 297/328/132 209/230/131 161/180/368 240/466/373
f 211/232/119 294/324/126 242/468/377 163/182/376
f 294/324/126 210/231/125 162/181/372 242/468/377
f 212/233/113 291/320/120 244/470/381 164/183/380
f 291/320/120 211/232/119 163/182/376 244/470/381
f 213/234/106 288/316/114 246/472/385 165/184/384
f 288/316/114 212/233/113 164/183/380 246/472/385
f 206/226/108 284/310/107 248/474/388 158/177/362
f 284/310/107 213/234/106 165/184/384 248/474/388
f 471/510/429 470/509/428 125/143/310 224/450/355
f 472/511/430 471/510/429 224/450/355 132/150/351
f 473/512/435 472/511/430 132/150/351 221/447/349
f 474/513/436 473/512/435 221/447/349 131/149/345
f 475/514/441 474/513/436 131/149/345 218/444/343
f 476/515/442 475/514/441 218/444/343 130/148/339
f 477/516/447 476/515/442 130/148/339 215/441/337
f 478/517/448 477/516/447 215/441/337 129/147/333
f 479/518/453 478/517/448 129/147/333 396/438/331
f 480/519/454 479/518/453 396/438/331 128/146/327
f 481/520/459 480/519/454 128/146/327 393/435/325
f 482/521/460 481/520/459 393/435/325 127/145/321
f 483/522/465 482/521/460 127/145/321 390/432/319
f 484/523/466 483/522/465 390/432/319 126/144/314
f 485/524/469 484/523/466 126/144/314 386/428/311
f 470/509/428 485/524/469 386/428/311 125/143/310
